<?xml version="1.0" encoding="utf-8" standalone="no"?>
<!DOCTYPE svg PUBLIC "-//W3C//DTD SVG 1.1//EN"
  "http://www.w3.org/Graphics/SVG/1.1/DTD/svg11.dtd">
<!-- Created with matplotlib (https://matplotlib.org/) -->
<svg height="960pt" version="1.1" viewBox="0 0 640 960" width="640pt" xmlns="http://www.w3.org/2000/svg" xmlns:xlink="http://www.w3.org/1999/xlink">
 <metadata>
  <rdf:RDF xmlns:cc="http://creativecommons.org/ns#" xmlns:dc="http://purl.org/dc/elements/1.1/" xmlns:rdf="http://www.w3.org/1999/02/22-rdf-syntax-ns#">
   <cc:Work>
    <dc:type rdf:resource="http://purl.org/dc/dcmitype/StillImage"/>
    <dc:date>2023-12-17T22:03:44.045782</dc:date>
    <dc:format>image/svg+xml</dc:format>
    <dc:creator>
     <cc:Agent>
      <dc:title>Matplotlib v3.3.4, https://matplotlib.org/</dc:title>
     </cc:Agent>
    </dc:creator>
   </cc:Work>
  </rdf:RDF>
 </metadata>
 <defs>
  <style type="text/css">*{stroke-linecap:butt;stroke-linejoin:round;}</style>
 </defs>
 <g id="figure_1">
  <g id="patch_1">
   <path d="M 0 960 
L 640 960 
L 640 0 
L 0 0 
z
" style="fill:#a9a9a9;"/>
  </g>
  <g id="axes_1">
   <g id="patch_2">
    <path d="M 53.76 448.581818 
L 588.8 448.581818 
L 588.8 96 
L 53.76 96 
z
" style="fill:#f5f5f5;"/>
   </g>
   <g id="patch_3">
    <path clip-path="url(#p4569caa1c1)" d="M 78.08 448.581818 
L 82.018462 448.581818 
L 82.018462 373.961328 
L 78.08 373.961328 
z
" style="fill:#0000ff;"/>
   </g>
   <g id="patch_4">
    <path clip-path="url(#p4569caa1c1)" d="M 83.003077 448.581818 
L 86.941538 448.581818 
L 86.941538 373.961328 
L 83.003077 373.961328 
z
" style="fill:#0000ff;"/>
   </g>
   <g id="patch_5">
    <path clip-path="url(#p4569caa1c1)" d="M 87.926154 448.581818 
L 91.864615 448.581818 
L 91.864615 150.099856 
L 87.926154 150.099856 
z
" style="fill:#0000ff;"/>
   </g>
   <g id="patch_6">
    <path clip-path="url(#p4569caa1c1)" d="M 92.849231 448.581818 
L 96.787692 448.581818 
L 96.787692 373.961328 
L 92.849231 373.961328 
z
" style="fill:#0000ff;"/>
   </g>
   <g id="patch_7">
    <path clip-path="url(#p4569caa1c1)" d="M 97.772308 448.581818 
L 101.710769 448.581818 
L 101.710769 373.961328 
L 97.772308 373.961328 
z
" style="fill:#0000ff;"/>
   </g>
   <g id="patch_8">
    <path clip-path="url(#p4569caa1c1)" d="M 102.695385 448.581818 
L 106.633846 448.581818 
L 106.633846 187.410101 
L 102.695385 187.410101 
z
" style="fill:#0000ff;"/>
   </g>
   <g id="patch_9">
    <path clip-path="url(#p4569caa1c1)" d="M 107.618462 448.581818 
L 111.556923 448.581818 
L 111.556923 262.030592 
L 107.618462 262.030592 
z
" style="fill:#0000ff;"/>
   </g>
   <g id="patch_10">
    <path clip-path="url(#p4569caa1c1)" d="M 112.541538 448.581818 
L 116.48 448.581818 
L 116.48 224.720346 
L 112.541538 224.720346 
z
" style="fill:#0000ff;"/>
   </g>
   <g id="patch_11">
    <path clip-path="url(#p4569caa1c1)" d="M 117.464615 448.581818 
L 121.403077 448.581818 
L 121.403077 150.099856 
L 117.464615 150.099856 
z
" style="fill:#0000ff;"/>
   </g>
   <g id="patch_12">
    <path clip-path="url(#p4569caa1c1)" d="M 122.387692 448.581818 
L 126.326154 448.581818 
L 126.326154 411.271573 
L 122.387692 411.271573 
z
" style="fill:#0000ff;"/>
   </g>
   <g id="patch_13">
    <path clip-path="url(#p4569caa1c1)" d="M 132.233846 448.581818 
L 136.172308 448.581818 
L 136.172308 299.340837 
L 132.233846 299.340837 
z
" style="fill:#0000ff;"/>
   </g>
   <g id="patch_14">
    <path clip-path="url(#p4569caa1c1)" d="M 137.156923 448.581818 
L 141.095385 448.581818 
L 141.095385 373.961328 
L 137.156923 373.961328 
z
" style="fill:#0000ff;"/>
   </g>
   <g id="patch_15">
    <path clip-path="url(#p4569caa1c1)" d="M 142.08 448.581818 
L 146.018462 448.581818 
L 146.018462 299.340837 
L 142.08 299.340837 
z
" style="fill:#0000ff;"/>
   </g>
   <g id="patch_16">
    <path clip-path="url(#p4569caa1c1)" d="M 147.003077 448.581818 
L 150.941538 448.581818 
L 150.941538 262.030592 
L 147.003077 262.030592 
z
" style="fill:#0000ff;"/>
   </g>
   <g id="patch_17">
    <path clip-path="url(#p4569caa1c1)" d="M 151.926154 448.581818 
L 155.864615 448.581818 
L 155.864615 112.78961 
L 151.926154 112.78961 
z
" style="fill:#0000ff;"/>
   </g>
   <g id="patch_18">
    <path clip-path="url(#p4569caa1c1)" d="M 156.849231 448.581818 
L 160.787692 448.581818 
L 160.787692 262.030592 
L 156.849231 262.030592 
z
" style="fill:#0000ff;"/>
   </g>
   <g id="patch_19">
    <path clip-path="url(#p4569caa1c1)" d="M 166.695385 448.581818 
L 170.633846 448.581818 
L 170.633846 411.271573 
L 166.695385 411.271573 
z
" style="fill:#0000ff;"/>
   </g>
   <g id="patch_20">
    <path clip-path="url(#p4569caa1c1)" d="M 171.618462 448.581818 
L 175.556923 448.581818 
L 175.556923 336.651082 
L 171.618462 336.651082 
z
" style="fill:#0000ff;"/>
   </g>
   <g id="patch_21">
    <path clip-path="url(#p4569caa1c1)" d="M 176.541538 448.581818 
L 180.48 448.581818 
L 180.48 262.030592 
L 176.541538 262.030592 
z
" style="fill:#0000ff;"/>
   </g>
   <g id="patch_22">
    <path clip-path="url(#p4569caa1c1)" d="M 181.464615 448.581818 
L 185.403077 448.581818 
L 185.403077 299.340837 
L 181.464615 299.340837 
z
" style="fill:#0000ff;"/>
   </g>
   <g id="patch_23">
    <path clip-path="url(#p4569caa1c1)" d="M 186.387692 448.581818 
L 190.326154 448.581818 
L 190.326154 373.961328 
L 186.387692 373.961328 
z
" style="fill:#0000ff;"/>
   </g>
   <g id="patch_24">
    <path clip-path="url(#p4569caa1c1)" d="M 191.310769 448.581818 
L 195.249231 448.581818 
L 195.249231 336.651082 
L 191.310769 336.651082 
z
" style="fill:#0000ff;"/>
   </g>
   <g id="patch_25">
    <path clip-path="url(#p4569caa1c1)" d="M 196.233846 448.581818 
L 200.172308 448.581818 
L 200.172308 262.030592 
L 196.233846 262.030592 
z
" style="fill:#0000ff;"/>
   </g>
   <g id="patch_26">
    <path clip-path="url(#p4569caa1c1)" d="M 201.156923 448.581818 
L 205.095385 448.581818 
L 205.095385 299.340837 
L 201.156923 299.340837 
z
" style="fill:#0000ff;"/>
   </g>
   <g id="patch_27">
    <path clip-path="url(#p4569caa1c1)" d="M 206.08 448.581818 
L 210.018462 448.581818 
L 210.018462 373.961328 
L 206.08 373.961328 
z
" style="fill:#0000ff;"/>
   </g>
   <g id="patch_28">
    <path clip-path="url(#p4569caa1c1)" d="M 211.003077 448.581818 
L 214.941538 448.581818 
L 214.941538 187.410101 
L 211.003077 187.410101 
z
" style="fill:#0000ff;"/>
   </g>
   <g id="patch_29">
    <path clip-path="url(#p4569caa1c1)" d="M 215.926154 448.581818 
L 219.864615 448.581818 
L 219.864615 224.720346 
L 215.926154 224.720346 
z
" style="fill:#0000ff;"/>
   </g>
   <g id="patch_30">
    <path clip-path="url(#p4569caa1c1)" d="M 220.849231 448.581818 
L 224.787692 448.581818 
L 224.787692 299.340837 
L 220.849231 299.340837 
z
" style="fill:#0000ff;"/>
   </g>
   <g id="patch_31">
    <path clip-path="url(#p4569caa1c1)" d="M 225.772308 448.581818 
L 229.710769 448.581818 
L 229.710769 336.651082 
L 225.772308 336.651082 
z
" style="fill:#0000ff;"/>
   </g>
   <g id="patch_32">
    <path clip-path="url(#p4569caa1c1)" d="M 230.695385 448.581818 
L 234.633846 448.581818 
L 234.633846 187.410101 
L 230.695385 187.410101 
z
" style="fill:#0000ff;"/>
   </g>
   <g id="patch_33">
    <path clip-path="url(#p4569caa1c1)" d="M 235.618462 448.581818 
L 239.556923 448.581818 
L 239.556923 373.961328 
L 235.618462 373.961328 
z
" style="fill:#0000ff;"/>
   </g>
   <g id="patch_34">
    <path clip-path="url(#p4569caa1c1)" d="M 240.541538 448.581818 
L 244.48 448.581818 
L 244.48 224.720346 
L 240.541538 224.720346 
z
" style="fill:#0000ff;"/>
   </g>
   <g id="patch_35">
    <path clip-path="url(#p4569caa1c1)" d="M 245.464615 448.581818 
L 249.403077 448.581818 
L 249.403077 336.651082 
L 245.464615 336.651082 
z
" style="fill:#0000ff;"/>
   </g>
   <g id="patch_36">
    <path clip-path="url(#p4569caa1c1)" d="M 250.387692 448.581818 
L 254.326154 448.581818 
L 254.326154 150.099856 
L 250.387692 150.099856 
z
" style="fill:#0000ff;"/>
   </g>
   <g id="patch_37">
    <path clip-path="url(#p4569caa1c1)" d="M 255.310769 448.581818 
L 259.249231 448.581818 
L 259.249231 373.961328 
L 255.310769 373.961328 
z
" style="fill:#0000ff;"/>
   </g>
   <g id="patch_38">
    <path clip-path="url(#p4569caa1c1)" d="M 265.156923 448.581818 
L 269.095385 448.581818 
L 269.095385 262.030592 
L 265.156923 262.030592 
z
" style="fill:#0000ff;"/>
   </g>
   <g id="patch_39">
    <path clip-path="url(#p4569caa1c1)" d="M 270.08 448.581818 
L 274.018462 448.581818 
L 274.018462 373.961328 
L 270.08 373.961328 
z
" style="fill:#0000ff;"/>
   </g>
   <g id="patch_40">
    <path clip-path="url(#p4569caa1c1)" d="M 275.003077 448.581818 
L 278.941538 448.581818 
L 278.941538 150.099856 
L 275.003077 150.099856 
z
" style="fill:#0000ff;"/>
   </g>
   <g id="patch_41">
    <path clip-path="url(#p4569caa1c1)" d="M 279.926154 448.581818 
L 283.864615 448.581818 
L 283.864615 299.340837 
L 279.926154 299.340837 
z
" style="fill:#0000ff;"/>
   </g>
   <g id="patch_42">
    <path clip-path="url(#p4569caa1c1)" d="M 284.849231 448.581818 
L 288.787692 448.581818 
L 288.787692 299.340837 
L 284.849231 299.340837 
z
" style="fill:#0000ff;"/>
   </g>
   <g id="patch_43">
    <path clip-path="url(#p4569caa1c1)" d="M 289.772308 448.581818 
L 293.710769 448.581818 
L 293.710769 262.030592 
L 289.772308 262.030592 
z
" style="fill:#0000ff;"/>
   </g>
   <g id="patch_44">
    <path clip-path="url(#p4569caa1c1)" d="M 294.695385 448.581818 
L 298.633846 448.581818 
L 298.633846 187.410101 
L 294.695385 187.410101 
z
" style="fill:#0000ff;"/>
   </g>
   <g id="patch_45">
    <path clip-path="url(#p4569caa1c1)" d="M 309.464615 448.581818 
L 313.403077 448.581818 
L 313.403077 336.651082 
L 309.464615 336.651082 
z
" style="fill:#0000ff;"/>
   </g>
   <g id="patch_46">
    <path clip-path="url(#p4569caa1c1)" d="M 314.387692 448.581818 
L 318.326154 448.581818 
L 318.326154 187.410101 
L 314.387692 187.410101 
z
" style="fill:#0000ff;"/>
   </g>
   <g id="patch_47">
    <path clip-path="url(#p4569caa1c1)" d="M 319.310769 448.581818 
L 323.249231 448.581818 
L 323.249231 187.410101 
L 319.310769 187.410101 
z
" style="fill:#0000ff;"/>
   </g>
   <g id="patch_48">
    <path clip-path="url(#p4569caa1c1)" d="M 324.233846 448.581818 
L 328.172308 448.581818 
L 328.172308 373.961328 
L 324.233846 373.961328 
z
" style="fill:#0000ff;"/>
   </g>
   <g id="patch_49">
    <path clip-path="url(#p4569caa1c1)" d="M 329.156923 448.581818 
L 333.095385 448.581818 
L 333.095385 411.271573 
L 329.156923 411.271573 
z
" style="fill:#0000ff;"/>
   </g>
   <g id="patch_50">
    <path clip-path="url(#p4569caa1c1)" d="M 334.08 448.581818 
L 338.018462 448.581818 
L 338.018462 262.030592 
L 334.08 262.030592 
z
" style="fill:#0000ff;"/>
   </g>
   <g id="patch_51">
    <path clip-path="url(#p4569caa1c1)" d="M 339.003077 448.581818 
L 342.941538 448.581818 
L 342.941538 336.651082 
L 339.003077 336.651082 
z
" style="fill:#0000ff;"/>
   </g>
   <g id="patch_52">
    <path clip-path="url(#p4569caa1c1)" d="M 343.926154 448.581818 
L 347.864615 448.581818 
L 347.864615 336.651082 
L 343.926154 336.651082 
z
" style="fill:#0000ff;"/>
   </g>
   <g id="patch_53">
    <path clip-path="url(#p4569caa1c1)" d="M 348.849231 448.581818 
L 352.787692 448.581818 
L 352.787692 187.410101 
L 348.849231 187.410101 
z
" style="fill:#0000ff;"/>
   </g>
   <g id="patch_54">
    <path clip-path="url(#p4569caa1c1)" d="M 353.772308 448.581818 
L 357.710769 448.581818 
L 357.710769 336.651082 
L 353.772308 336.651082 
z
" style="fill:#0000ff;"/>
   </g>
   <g id="patch_55">
    <path clip-path="url(#p4569caa1c1)" d="M 358.695385 448.581818 
L 362.633846 448.581818 
L 362.633846 373.961328 
L 358.695385 373.961328 
z
" style="fill:#0000ff;"/>
   </g>
   <g id="patch_56">
    <path clip-path="url(#p4569caa1c1)" d="M 363.618462 448.581818 
L 367.556923 448.581818 
L 367.556923 299.340837 
L 363.618462 299.340837 
z
" style="fill:#0000ff;"/>
   </g>
   <g id="patch_57">
    <path clip-path="url(#p4569caa1c1)" d="M 368.541538 448.581818 
L 372.48 448.581818 
L 372.48 336.651082 
L 368.541538 336.651082 
z
" style="fill:#0000ff;"/>
   </g>
   <g id="patch_58">
    <path clip-path="url(#p4569caa1c1)" d="M 373.464615 448.581818 
L 377.403077 448.581818 
L 377.403077 262.030592 
L 373.464615 262.030592 
z
" style="fill:#0000ff;"/>
   </g>
   <g id="patch_59">
    <path clip-path="url(#p4569caa1c1)" d="M 378.387692 448.581818 
L 382.326154 448.581818 
L 382.326154 336.651082 
L 378.387692 336.651082 
z
" style="fill:#0000ff;"/>
   </g>
   <g id="patch_60">
    <path clip-path="url(#p4569caa1c1)" d="M 383.310769 448.581818 
L 387.249231 448.581818 
L 387.249231 336.651082 
L 383.310769 336.651082 
z
" style="fill:#0000ff;"/>
   </g>
   <g id="patch_61">
    <path clip-path="url(#p4569caa1c1)" d="M 388.233846 448.581818 
L 392.172308 448.581818 
L 392.172308 262.030592 
L 388.233846 262.030592 
z
" style="fill:#0000ff;"/>
   </g>
   <g id="patch_62">
    <path clip-path="url(#p4569caa1c1)" d="M 393.156923 448.581818 
L 397.095385 448.581818 
L 397.095385 299.340837 
L 393.156923 299.340837 
z
" style="fill:#0000ff;"/>
   </g>
   <g id="patch_63">
    <path clip-path="url(#p4569caa1c1)" d="M 398.08 448.581818 
L 402.018462 448.581818 
L 402.018462 262.030592 
L 398.08 262.030592 
z
" style="fill:#0000ff;"/>
   </g>
   <g id="patch_64">
    <path clip-path="url(#p4569caa1c1)" d="M 403.003077 448.581818 
L 406.941538 448.581818 
L 406.941538 299.340837 
L 403.003077 299.340837 
z
" style="fill:#0000ff;"/>
   </g>
   <g id="patch_65">
    <path clip-path="url(#p4569caa1c1)" d="M 407.926154 448.581818 
L 411.864615 448.581818 
L 411.864615 224.720346 
L 407.926154 224.720346 
z
" style="fill:#0000ff;"/>
   </g>
   <g id="patch_66">
    <path clip-path="url(#p4569caa1c1)" d="M 412.849231 448.581818 
L 416.787692 448.581818 
L 416.787692 299.340837 
L 412.849231 299.340837 
z
" style="fill:#0000ff;"/>
   </g>
   <g id="patch_67">
    <path clip-path="url(#p4569caa1c1)" d="M 417.772308 448.581818 
L 421.710769 448.581818 
L 421.710769 336.651082 
L 417.772308 336.651082 
z
" style="fill:#0000ff;"/>
   </g>
   <g id="patch_68">
    <path clip-path="url(#p4569caa1c1)" d="M 422.695385 448.581818 
L 426.633846 448.581818 
L 426.633846 150.099856 
L 422.695385 150.099856 
z
" style="fill:#0000ff;"/>
   </g>
   <g id="patch_69">
    <path clip-path="url(#p4569caa1c1)" d="M 427.618462 448.581818 
L 431.556923 448.581818 
L 431.556923 336.651082 
L 427.618462 336.651082 
z
" style="fill:#0000ff;"/>
   </g>
   <g id="patch_70">
    <path clip-path="url(#p4569caa1c1)" d="M 432.541538 448.581818 
L 436.48 448.581818 
L 436.48 411.271573 
L 432.541538 411.271573 
z
" style="fill:#0000ff;"/>
   </g>
   <g id="patch_71">
    <path clip-path="url(#p4569caa1c1)" d="M 437.464615 448.581818 
L 441.403077 448.581818 
L 441.403077 224.720346 
L 437.464615 224.720346 
z
" style="fill:#0000ff;"/>
   </g>
   <g id="patch_72">
    <path clip-path="url(#p4569caa1c1)" d="M 442.387692 448.581818 
L 446.326154 448.581818 
L 446.326154 262.030592 
L 442.387692 262.030592 
z
" style="fill:#0000ff;"/>
   </g>
   <g id="patch_73">
    <path clip-path="url(#p4569caa1c1)" d="M 447.310769 448.581818 
L 451.249231 448.581818 
L 451.249231 224.720346 
L 447.310769 224.720346 
z
" style="fill:#0000ff;"/>
   </g>
   <g id="patch_74">
    <path clip-path="url(#p4569caa1c1)" d="M 452.233846 448.581818 
L 456.172308 448.581818 
L 456.172308 373.961328 
L 452.233846 373.961328 
z
" style="fill:#0000ff;"/>
   </g>
   <g id="patch_75">
    <path clip-path="url(#p4569caa1c1)" d="M 457.156923 448.581818 
L 461.095385 448.581818 
L 461.095385 262.030592 
L 457.156923 262.030592 
z
" style="fill:#0000ff;"/>
   </g>
   <g id="patch_76">
    <path clip-path="url(#p4569caa1c1)" d="M 462.08 448.581818 
L 466.018462 448.581818 
L 466.018462 299.340837 
L 462.08 299.340837 
z
" style="fill:#0000ff;"/>
   </g>
   <g id="patch_77">
    <path clip-path="url(#p4569caa1c1)" d="M 467.003077 448.581818 
L 470.941538 448.581818 
L 470.941538 262.030592 
L 467.003077 262.030592 
z
" style="fill:#0000ff;"/>
   </g>
   <g id="patch_78">
    <path clip-path="url(#p4569caa1c1)" d="M 471.926154 448.581818 
L 475.864615 448.581818 
L 475.864615 336.651082 
L 471.926154 336.651082 
z
" style="fill:#0000ff;"/>
   </g>
   <g id="patch_79">
    <path clip-path="url(#p4569caa1c1)" d="M 476.849231 448.581818 
L 480.787692 448.581818 
L 480.787692 336.651082 
L 476.849231 336.651082 
z
" style="fill:#0000ff;"/>
   </g>
   <g id="patch_80">
    <path clip-path="url(#p4569caa1c1)" d="M 481.772308 448.581818 
L 485.710769 448.581818 
L 485.710769 224.720346 
L 481.772308 224.720346 
z
" style="fill:#0000ff;"/>
   </g>
   <g id="patch_81">
    <path clip-path="url(#p4569caa1c1)" d="M 486.695385 448.581818 
L 490.633846 448.581818 
L 490.633846 187.410101 
L 486.695385 187.410101 
z
" style="fill:#0000ff;"/>
   </g>
   <g id="patch_82">
    <path clip-path="url(#p4569caa1c1)" d="M 491.618462 448.581818 
L 495.556923 448.581818 
L 495.556923 112.78961 
L 491.618462 112.78961 
z
" style="fill:#0000ff;"/>
   </g>
   <g id="patch_83">
    <path clip-path="url(#p4569caa1c1)" d="M 496.541538 448.581818 
L 500.48 448.581818 
L 500.48 373.961328 
L 496.541538 373.961328 
z
" style="fill:#0000ff;"/>
   </g>
   <g id="patch_84">
    <path clip-path="url(#p4569caa1c1)" d="M 501.464615 448.581818 
L 505.403077 448.581818 
L 505.403077 187.410101 
L 501.464615 187.410101 
z
" style="fill:#0000ff;"/>
   </g>
   <g id="patch_85">
    <path clip-path="url(#p4569caa1c1)" d="M 506.387692 448.581818 
L 510.326154 448.581818 
L 510.326154 224.720346 
L 506.387692 224.720346 
z
" style="fill:#0000ff;"/>
   </g>
   <g id="patch_86">
    <path clip-path="url(#p4569caa1c1)" d="M 511.310769 448.581818 
L 515.249231 448.581818 
L 515.249231 336.651082 
L 511.310769 336.651082 
z
" style="fill:#0000ff;"/>
   </g>
   <g id="patch_87">
    <path clip-path="url(#p4569caa1c1)" d="M 521.156923 448.581818 
L 525.095385 448.581818 
L 525.095385 373.961328 
L 521.156923 373.961328 
z
" style="fill:#0000ff;"/>
   </g>
   <g id="patch_88">
    <path clip-path="url(#p4569caa1c1)" d="M 526.08 448.581818 
L 530.018462 448.581818 
L 530.018462 299.340837 
L 526.08 299.340837 
z
" style="fill:#0000ff;"/>
   </g>
   <g id="patch_89">
    <path clip-path="url(#p4569caa1c1)" d="M 531.003077 448.581818 
L 534.941538 448.581818 
L 534.941538 336.651082 
L 531.003077 336.651082 
z
" style="fill:#0000ff;"/>
   </g>
   <g id="patch_90">
    <path clip-path="url(#p4569caa1c1)" d="M 535.926154 448.581818 
L 539.864615 448.581818 
L 539.864615 336.651082 
L 535.926154 336.651082 
z
" style="fill:#0000ff;"/>
   </g>
   <g id="patch_91">
    <path clip-path="url(#p4569caa1c1)" d="M 540.849231 448.581818 
L 544.787692 448.581818 
L 544.787692 150.099856 
L 540.849231 150.099856 
z
" style="fill:#0000ff;"/>
   </g>
   <g id="patch_92">
    <path clip-path="url(#p4569caa1c1)" d="M 545.772308 448.581818 
L 549.710769 448.581818 
L 549.710769 262.030592 
L 545.772308 262.030592 
z
" style="fill:#0000ff;"/>
   </g>
   <g id="patch_93">
    <path clip-path="url(#p4569caa1c1)" d="M 555.618462 448.581818 
L 559.556923 448.581818 
L 559.556923 299.340837 
L 555.618462 299.340837 
z
" style="fill:#0000ff;"/>
   </g>
   <g id="patch_94">
    <path clip-path="url(#p4569caa1c1)" d="M 560.541538 448.581818 
L 564.48 448.581818 
L 564.48 299.340837 
L 560.541538 299.340837 
z
" style="fill:#0000ff;"/>
   </g>
   <g id="matplotlib.axis_1">
    <g id="xtick_1">
     <g id="line2d_1">
      <path clip-path="url(#p4569caa1c1)" d="M 75.126154 448.581818 
L 75.126154 96 
" style="fill:none;stroke:#b0b0b0;stroke-linecap:square;stroke-width:0.8;"/>
     </g>
     <g id="line2d_2">
      <defs>
       <path d="M 0 0 
L 0 3.5 
" id="m551abca56d" style="stroke:#000000;stroke-width:0.8;"/>
      </defs>
      <g>
       <use style="stroke:#000000;stroke-width:0.8;" x="75.126154" xlink:href="#m551abca56d" y="448.581818"/>
      </g>
     </g>
     <g id="text_1">
      <!-- 0 -->
      <g transform="translate(71.944904 463.180256)scale(0.1 -0.1)">
       <defs>
        <path d="M 31.78125 66.40625 
Q 24.171875 66.40625 20.328125 58.90625 
Q 16.5 51.421875 16.5 36.375 
Q 16.5 21.390625 20.328125 13.890625 
Q 24.171875 6.390625 31.78125 6.390625 
Q 39.453125 6.390625 43.28125 13.890625 
Q 47.125 21.390625 47.125 36.375 
Q 47.125 51.421875 43.28125 58.90625 
Q 39.453125 66.40625 31.78125 66.40625 
z
M 31.78125 74.21875 
Q 44.046875 74.21875 50.515625 64.515625 
Q 56.984375 54.828125 56.984375 36.375 
Q 56.984375 17.96875 50.515625 8.265625 
Q 44.046875 -1.421875 31.78125 -1.421875 
Q 19.53125 -1.421875 13.0625 8.265625 
Q 6.59375 17.96875 6.59375 36.375 
Q 6.59375 54.828125 13.0625 64.515625 
Q 19.53125 74.21875 31.78125 74.21875 
z
" id="DejaVuSans-48"/>
       </defs>
       <use xlink:href="#DejaVuSans-48"/>
      </g>
     </g>
    </g>
    <g id="xtick_2">
     <g id="line2d_3">
      <path clip-path="url(#p4569caa1c1)" d="M 173.587692 448.581818 
L 173.587692 96 
" style="fill:none;stroke:#b0b0b0;stroke-linecap:square;stroke-width:0.8;"/>
     </g>
     <g id="line2d_4">
      <g>
       <use style="stroke:#000000;stroke-width:0.8;" x="173.587692" xlink:href="#m551abca56d" y="448.581818"/>
      </g>
     </g>
     <g id="text_2">
      <!-- 20 -->
      <g transform="translate(167.225192 463.180256)scale(0.1 -0.1)">
       <defs>
        <path d="M 19.1875 8.296875 
L 53.609375 8.296875 
L 53.609375 0 
L 7.328125 0 
L 7.328125 8.296875 
Q 12.9375 14.109375 22.625 23.890625 
Q 32.328125 33.6875 34.8125 36.53125 
Q 39.546875 41.84375 41.421875 45.53125 
Q 43.3125 49.21875 43.3125 52.78125 
Q 43.3125 58.59375 39.234375 62.25 
Q 35.15625 65.921875 28.609375 65.921875 
Q 23.96875 65.921875 18.8125 64.3125 
Q 13.671875 62.703125 7.8125 59.421875 
L 7.8125 69.390625 
Q 13.765625 71.78125 18.9375 73 
Q 24.125 74.21875 28.421875 74.21875 
Q 39.75 74.21875 46.484375 68.546875 
Q 53.21875 62.890625 53.21875 53.421875 
Q 53.21875 48.921875 51.53125 44.890625 
Q 49.859375 40.875 45.40625 35.40625 
Q 44.1875 33.984375 37.640625 27.21875 
Q 31.109375 20.453125 19.1875 8.296875 
z
" id="DejaVuSans-50"/>
       </defs>
       <use xlink:href="#DejaVuSans-50"/>
       <use x="63.623047" xlink:href="#DejaVuSans-48"/>
      </g>
     </g>
    </g>
    <g id="xtick_3">
     <g id="line2d_5">
      <path clip-path="url(#p4569caa1c1)" d="M 272.049231 448.581818 
L 272.049231 96 
" style="fill:none;stroke:#b0b0b0;stroke-linecap:square;stroke-width:0.8;"/>
     </g>
     <g id="line2d_6">
      <g>
       <use style="stroke:#000000;stroke-width:0.8;" x="272.049231" xlink:href="#m551abca56d" y="448.581818"/>
      </g>
     </g>
     <g id="text_3">
      <!-- 40 -->
      <g transform="translate(265.686731 463.180256)scale(0.1 -0.1)">
       <defs>
        <path d="M 37.796875 64.3125 
L 12.890625 25.390625 
L 37.796875 25.390625 
z
M 35.203125 72.90625 
L 47.609375 72.90625 
L 47.609375 25.390625 
L 58.015625 25.390625 
L 58.015625 17.1875 
L 47.609375 17.1875 
L 47.609375 0 
L 37.796875 0 
L 37.796875 17.1875 
L 4.890625 17.1875 
L 4.890625 26.703125 
z
" id="DejaVuSans-52"/>
       </defs>
       <use xlink:href="#DejaVuSans-52"/>
       <use x="63.623047" xlink:href="#DejaVuSans-48"/>
      </g>
     </g>
    </g>
    <g id="xtick_4">
     <g id="line2d_7">
      <path clip-path="url(#p4569caa1c1)" d="M 370.510769 448.581818 
L 370.510769 96 
" style="fill:none;stroke:#b0b0b0;stroke-linecap:square;stroke-width:0.8;"/>
     </g>
     <g id="line2d_8">
      <g>
       <use style="stroke:#000000;stroke-width:0.8;" x="370.510769" xlink:href="#m551abca56d" y="448.581818"/>
      </g>
     </g>
     <g id="text_4">
      <!-- 60 -->
      <g transform="translate(364.148269 463.180256)scale(0.1 -0.1)">
       <defs>
        <path d="M 33.015625 40.375 
Q 26.375 40.375 22.484375 35.828125 
Q 18.609375 31.296875 18.609375 23.390625 
Q 18.609375 15.53125 22.484375 10.953125 
Q 26.375 6.390625 33.015625 6.390625 
Q 39.65625 6.390625 43.53125 10.953125 
Q 47.40625 15.53125 47.40625 23.390625 
Q 47.40625 31.296875 43.53125 35.828125 
Q 39.65625 40.375 33.015625 40.375 
z
M 52.59375 71.296875 
L 52.59375 62.3125 
Q 48.875 64.0625 45.09375 64.984375 
Q 41.3125 65.921875 37.59375 65.921875 
Q 27.828125 65.921875 22.671875 59.328125 
Q 17.53125 52.734375 16.796875 39.40625 
Q 19.671875 43.65625 24.015625 45.921875 
Q 28.375 48.1875 33.59375 48.1875 
Q 44.578125 48.1875 50.953125 41.515625 
Q 57.328125 34.859375 57.328125 23.390625 
Q 57.328125 12.15625 50.6875 5.359375 
Q 44.046875 -1.421875 33.015625 -1.421875 
Q 20.359375 -1.421875 13.671875 8.265625 
Q 6.984375 17.96875 6.984375 36.375 
Q 6.984375 53.65625 15.1875 63.9375 
Q 23.390625 74.21875 37.203125 74.21875 
Q 40.921875 74.21875 44.703125 73.484375 
Q 48.484375 72.75 52.59375 71.296875 
z
" id="DejaVuSans-54"/>
       </defs>
       <use xlink:href="#DejaVuSans-54"/>
       <use x="63.623047" xlink:href="#DejaVuSans-48"/>
      </g>
     </g>
    </g>
    <g id="xtick_5">
     <g id="line2d_9">
      <path clip-path="url(#p4569caa1c1)" d="M 468.972308 448.581818 
L 468.972308 96 
" style="fill:none;stroke:#b0b0b0;stroke-linecap:square;stroke-width:0.8;"/>
     </g>
     <g id="line2d_10">
      <g>
       <use style="stroke:#000000;stroke-width:0.8;" x="468.972308" xlink:href="#m551abca56d" y="448.581818"/>
      </g>
     </g>
     <g id="text_5">
      <!-- 80 -->
      <g transform="translate(462.609808 463.180256)scale(0.1 -0.1)">
       <defs>
        <path d="M 31.78125 34.625 
Q 24.75 34.625 20.71875 30.859375 
Q 16.703125 27.09375 16.703125 20.515625 
Q 16.703125 13.921875 20.71875 10.15625 
Q 24.75 6.390625 31.78125 6.390625 
Q 38.8125 6.390625 42.859375 10.171875 
Q 46.921875 13.96875 46.921875 20.515625 
Q 46.921875 27.09375 42.890625 30.859375 
Q 38.875 34.625 31.78125 34.625 
z
M 21.921875 38.8125 
Q 15.578125 40.375 12.03125 44.71875 
Q 8.5 49.078125 8.5 55.328125 
Q 8.5 64.0625 14.71875 69.140625 
Q 20.953125 74.21875 31.78125 74.21875 
Q 42.671875 74.21875 48.875 69.140625 
Q 55.078125 64.0625 55.078125 55.328125 
Q 55.078125 49.078125 51.53125 44.71875 
Q 48 40.375 41.703125 38.8125 
Q 48.828125 37.15625 52.796875 32.3125 
Q 56.78125 27.484375 56.78125 20.515625 
Q 56.78125 9.90625 50.3125 4.234375 
Q 43.84375 -1.421875 31.78125 -1.421875 
Q 19.734375 -1.421875 13.25 4.234375 
Q 6.78125 9.90625 6.78125 20.515625 
Q 6.78125 27.484375 10.78125 32.3125 
Q 14.796875 37.15625 21.921875 38.8125 
z
M 18.3125 54.390625 
Q 18.3125 48.734375 21.84375 45.5625 
Q 25.390625 42.390625 31.78125 42.390625 
Q 38.140625 42.390625 41.71875 45.5625 
Q 45.3125 48.734375 45.3125 54.390625 
Q 45.3125 60.0625 41.71875 63.234375 
Q 38.140625 66.40625 31.78125 66.40625 
Q 25.390625 66.40625 21.84375 63.234375 
Q 18.3125 60.0625 18.3125 54.390625 
z
" id="DejaVuSans-56"/>
       </defs>
       <use xlink:href="#DejaVuSans-56"/>
       <use x="63.623047" xlink:href="#DejaVuSans-48"/>
      </g>
     </g>
    </g>
    <g id="xtick_6">
     <g id="line2d_11">
      <path clip-path="url(#p4569caa1c1)" d="M 567.433846 448.581818 
L 567.433846 96 
" style="fill:none;stroke:#b0b0b0;stroke-linecap:square;stroke-width:0.8;"/>
     </g>
     <g id="line2d_12">
      <g>
       <use style="stroke:#000000;stroke-width:0.8;" x="567.433846" xlink:href="#m551abca56d" y="448.581818"/>
      </g>
     </g>
     <g id="text_6">
      <!-- 100 -->
      <g transform="translate(557.890096 463.180256)scale(0.1 -0.1)">
       <defs>
        <path d="M 12.40625 8.296875 
L 28.515625 8.296875 
L 28.515625 63.921875 
L 10.984375 60.40625 
L 10.984375 69.390625 
L 28.421875 72.90625 
L 38.28125 72.90625 
L 38.28125 8.296875 
L 54.390625 8.296875 
L 54.390625 0 
L 12.40625 0 
z
" id="DejaVuSans-49"/>
       </defs>
       <use xlink:href="#DejaVuSans-49"/>
       <use x="63.623047" xlink:href="#DejaVuSans-48"/>
       <use x="127.246094" xlink:href="#DejaVuSans-48"/>
      </g>
     </g>
    </g>
    <g id="text_7">
     <!-- Value -->
     <g transform="translate(307.54875 476.858381)scale(0.1 -0.1)">
      <defs>
       <path d="M 28.609375 0 
L 0.78125 72.90625 
L 11.078125 72.90625 
L 34.1875 11.53125 
L 57.328125 72.90625 
L 67.578125 72.90625 
L 39.796875 0 
z
" id="DejaVuSans-86"/>
       <path d="M 34.28125 27.484375 
Q 23.390625 27.484375 19.1875 25 
Q 14.984375 22.515625 14.984375 16.5 
Q 14.984375 11.71875 18.140625 8.90625 
Q 21.296875 6.109375 26.703125 6.109375 
Q 34.1875 6.109375 38.703125 11.40625 
Q 43.21875 16.703125 43.21875 25.484375 
L 43.21875 27.484375 
z
M 52.203125 31.203125 
L 52.203125 0 
L 43.21875 0 
L 43.21875 8.296875 
Q 40.140625 3.328125 35.546875 0.953125 
Q 30.953125 -1.421875 24.3125 -1.421875 
Q 15.921875 -1.421875 10.953125 3.296875 
Q 6 8.015625 6 15.921875 
Q 6 25.140625 12.171875 29.828125 
Q 18.359375 34.515625 30.609375 34.515625 
L 43.21875 34.515625 
L 43.21875 35.40625 
Q 43.21875 41.609375 39.140625 45 
Q 35.0625 48.390625 27.6875 48.390625 
Q 23 48.390625 18.546875 47.265625 
Q 14.109375 46.140625 10.015625 43.890625 
L 10.015625 52.203125 
Q 14.9375 54.109375 19.578125 55.046875 
Q 24.21875 56 28.609375 56 
Q 40.484375 56 46.34375 49.84375 
Q 52.203125 43.703125 52.203125 31.203125 
z
" id="DejaVuSans-97"/>
       <path d="M 9.421875 75.984375 
L 18.40625 75.984375 
L 18.40625 0 
L 9.421875 0 
z
" id="DejaVuSans-108"/>
       <path d="M 8.5 21.578125 
L 8.5 54.6875 
L 17.484375 54.6875 
L 17.484375 21.921875 
Q 17.484375 14.15625 20.5 10.265625 
Q 23.53125 6.390625 29.59375 6.390625 
Q 36.859375 6.390625 41.078125 11.03125 
Q 45.3125 15.671875 45.3125 23.6875 
L 45.3125 54.6875 
L 54.296875 54.6875 
L 54.296875 0 
L 45.3125 0 
L 45.3125 8.40625 
Q 42.046875 3.421875 37.71875 1 
Q 33.40625 -1.421875 27.6875 -1.421875 
Q 18.265625 -1.421875 13.375 4.4375 
Q 8.5 10.296875 8.5 21.578125 
z
M 31.109375 56 
z
" id="DejaVuSans-117"/>
       <path d="M 56.203125 29.59375 
L 56.203125 25.203125 
L 14.890625 25.203125 
Q 15.484375 15.921875 20.484375 11.0625 
Q 25.484375 6.203125 34.421875 6.203125 
Q 39.59375 6.203125 44.453125 7.46875 
Q 49.3125 8.734375 54.109375 11.28125 
L 54.109375 2.78125 
Q 49.265625 0.734375 44.1875 -0.34375 
Q 39.109375 -1.421875 33.890625 -1.421875 
Q 20.796875 -1.421875 13.15625 6.1875 
Q 5.515625 13.8125 5.515625 26.8125 
Q 5.515625 40.234375 12.765625 48.109375 
Q 20.015625 56 32.328125 56 
Q 43.359375 56 49.78125 48.890625 
Q 56.203125 41.796875 56.203125 29.59375 
z
M 47.21875 32.234375 
Q 47.125 39.59375 43.09375 43.984375 
Q 39.0625 48.390625 32.421875 48.390625 
Q 24.90625 48.390625 20.390625 44.140625 
Q 15.875 39.890625 15.1875 32.171875 
z
" id="DejaVuSans-101"/>
      </defs>
      <use xlink:href="#DejaVuSans-86"/>
      <use x="60.658203" xlink:href="#DejaVuSans-97"/>
      <use x="121.9375" xlink:href="#DejaVuSans-108"/>
      <use x="149.720703" xlink:href="#DejaVuSans-117"/>
      <use x="213.099609" xlink:href="#DejaVuSans-101"/>
     </g>
    </g>
   </g>
   <g id="matplotlib.axis_2">
    <g id="ytick_1">
     <g id="line2d_13">
      <path clip-path="url(#p4569caa1c1)" d="M 53.76 448.581818 
L 588.8 448.581818 
" style="fill:none;stroke:#b0b0b0;stroke-linecap:square;stroke-width:0.8;"/>
     </g>
     <g id="line2d_14">
      <defs>
       <path d="M 0 0 
L -3.5 0 
" id="mb2484bd681" style="stroke:#000000;stroke-width:0.8;"/>
      </defs>
      <g>
       <use style="stroke:#000000;stroke-width:0.8;" x="53.76" xlink:href="#mb2484bd681" y="448.581818"/>
      </g>
     </g>
     <g id="text_8">
      <!-- 0 -->
      <g transform="translate(40.3975 452.381037)scale(0.1 -0.1)">
       <use xlink:href="#DejaVuSans-48"/>
      </g>
     </g>
    </g>
    <g id="ytick_2">
     <g id="line2d_15">
      <path clip-path="url(#p4569caa1c1)" d="M 53.76 373.961328 
L 588.8 373.961328 
" style="fill:none;stroke:#b0b0b0;stroke-linecap:square;stroke-width:0.8;"/>
     </g>
     <g id="line2d_16">
      <g>
       <use style="stroke:#000000;stroke-width:0.8;" x="53.76" xlink:href="#mb2484bd681" y="373.961328"/>
      </g>
     </g>
     <g id="text_9">
      <!-- 2 -->
      <g transform="translate(40.3975 377.760546)scale(0.1 -0.1)">
       <use xlink:href="#DejaVuSans-50"/>
      </g>
     </g>
    </g>
    <g id="ytick_3">
     <g id="line2d_17">
      <path clip-path="url(#p4569caa1c1)" d="M 53.76 299.340837 
L 588.8 299.340837 
" style="fill:none;stroke:#b0b0b0;stroke-linecap:square;stroke-width:0.8;"/>
     </g>
     <g id="line2d_18">
      <g>
       <use style="stroke:#000000;stroke-width:0.8;" x="53.76" xlink:href="#mb2484bd681" y="299.340837"/>
      </g>
     </g>
     <g id="text_10">
      <!-- 4 -->
      <g transform="translate(40.3975 303.140056)scale(0.1 -0.1)">
       <use xlink:href="#DejaVuSans-52"/>
      </g>
     </g>
    </g>
    <g id="ytick_4">
     <g id="line2d_19">
      <path clip-path="url(#p4569caa1c1)" d="M 53.76 224.720346 
L 588.8 224.720346 
" style="fill:none;stroke:#b0b0b0;stroke-linecap:square;stroke-width:0.8;"/>
     </g>
     <g id="line2d_20">
      <g>
       <use style="stroke:#000000;stroke-width:0.8;" x="53.76" xlink:href="#mb2484bd681" y="224.720346"/>
      </g>
     </g>
     <g id="text_11">
      <!-- 6 -->
      <g transform="translate(40.3975 228.519565)scale(0.1 -0.1)">
       <use xlink:href="#DejaVuSans-54"/>
      </g>
     </g>
    </g>
    <g id="ytick_5">
     <g id="line2d_21">
      <path clip-path="url(#p4569caa1c1)" d="M 53.76 150.099856 
L 588.8 150.099856 
" style="fill:none;stroke:#b0b0b0;stroke-linecap:square;stroke-width:0.8;"/>
     </g>
     <g id="line2d_22">
      <g>
       <use style="stroke:#000000;stroke-width:0.8;" x="53.76" xlink:href="#mb2484bd681" y="150.099856"/>
      </g>
     </g>
     <g id="text_12">
      <!-- 8 -->
      <g transform="translate(40.3975 153.899074)scale(0.1 -0.1)">
       <use xlink:href="#DejaVuSans-56"/>
      </g>
     </g>
    </g>
    <g id="text_13">
     <!-- Count -->
     <g transform="translate(34.317813 287.139347)rotate(-90)scale(0.1 -0.1)">
      <defs>
       <path d="M 64.40625 67.28125 
L 64.40625 56.890625 
Q 59.421875 61.53125 53.78125 63.8125 
Q 48.140625 66.109375 41.796875 66.109375 
Q 29.296875 66.109375 22.65625 58.46875 
Q 16.015625 50.828125 16.015625 36.375 
Q 16.015625 21.96875 22.65625 14.328125 
Q 29.296875 6.6875 41.796875 6.6875 
Q 48.140625 6.6875 53.78125 8.984375 
Q 59.421875 11.28125 64.40625 15.921875 
L 64.40625 5.609375 
Q 59.234375 2.09375 53.4375 0.328125 
Q 47.65625 -1.421875 41.21875 -1.421875 
Q 24.65625 -1.421875 15.125 8.703125 
Q 5.609375 18.84375 5.609375 36.375 
Q 5.609375 53.953125 15.125 64.078125 
Q 24.65625 74.21875 41.21875 74.21875 
Q 47.75 74.21875 53.53125 72.484375 
Q 59.328125 70.75 64.40625 67.28125 
z
" id="DejaVuSans-67"/>
       <path d="M 30.609375 48.390625 
Q 23.390625 48.390625 19.1875 42.75 
Q 14.984375 37.109375 14.984375 27.296875 
Q 14.984375 17.484375 19.15625 11.84375 
Q 23.34375 6.203125 30.609375 6.203125 
Q 37.796875 6.203125 41.984375 11.859375 
Q 46.1875 17.53125 46.1875 27.296875 
Q 46.1875 37.015625 41.984375 42.703125 
Q 37.796875 48.390625 30.609375 48.390625 
z
M 30.609375 56 
Q 42.328125 56 49.015625 48.375 
Q 55.71875 40.765625 55.71875 27.296875 
Q 55.71875 13.875 49.015625 6.21875 
Q 42.328125 -1.421875 30.609375 -1.421875 
Q 18.84375 -1.421875 12.171875 6.21875 
Q 5.515625 13.875 5.515625 27.296875 
Q 5.515625 40.765625 12.171875 48.375 
Q 18.84375 56 30.609375 56 
z
" id="DejaVuSans-111"/>
       <path d="M 54.890625 33.015625 
L 54.890625 0 
L 45.90625 0 
L 45.90625 32.71875 
Q 45.90625 40.484375 42.875 44.328125 
Q 39.84375 48.1875 33.796875 48.1875 
Q 26.515625 48.1875 22.3125 43.546875 
Q 18.109375 38.921875 18.109375 30.90625 
L 18.109375 0 
L 9.078125 0 
L 9.078125 54.6875 
L 18.109375 54.6875 
L 18.109375 46.1875 
Q 21.34375 51.125 25.703125 53.5625 
Q 30.078125 56 35.796875 56 
Q 45.21875 56 50.046875 50.171875 
Q 54.890625 44.34375 54.890625 33.015625 
z
" id="DejaVuSans-110"/>
       <path d="M 18.3125 70.21875 
L 18.3125 54.6875 
L 36.8125 54.6875 
L 36.8125 47.703125 
L 18.3125 47.703125 
L 18.3125 18.015625 
Q 18.3125 11.328125 20.140625 9.421875 
Q 21.96875 7.515625 27.59375 7.515625 
L 36.8125 7.515625 
L 36.8125 0 
L 27.59375 0 
Q 17.1875 0 13.234375 3.875 
Q 9.28125 7.765625 9.28125 18.015625 
L 9.28125 47.703125 
L 2.6875 47.703125 
L 2.6875 54.6875 
L 9.28125 54.6875 
L 9.28125 70.21875 
z
" id="DejaVuSans-116"/>
      </defs>
      <use xlink:href="#DejaVuSans-67"/>
      <use x="69.824219" xlink:href="#DejaVuSans-111"/>
      <use x="131.005859" xlink:href="#DejaVuSans-117"/>
      <use x="194.384766" xlink:href="#DejaVuSans-110"/>
      <use x="257.763672" xlink:href="#DejaVuSans-116"/>
     </g>
    </g>
   </g>
   <g id="patch_95">
    <path d="M 53.76 448.581818 
L 53.76 96 
" style="fill:none;stroke:#000000;stroke-linecap:square;stroke-linejoin:miter;stroke-width:0.8;"/>
   </g>
   <g id="patch_96">
    <path d="M 588.8 448.581818 
L 588.8 96 
" style="fill:none;stroke:#000000;stroke-linecap:square;stroke-linejoin:miter;stroke-width:0.8;"/>
   </g>
   <g id="patch_97">
    <path d="M 53.76 448.581818 
L 588.8 448.581818 
" style="fill:none;stroke:#000000;stroke-linecap:square;stroke-linejoin:miter;stroke-width:0.8;"/>
   </g>
   <g id="patch_98">
    <path d="M 53.76 96 
L 588.8 96 
" style="fill:none;stroke:#000000;stroke-linecap:square;stroke-linejoin:miter;stroke-width:0.8;"/>
   </g>
   <g id="text_14">
    <!-- Dataset A -->
    <g transform="translate(291.773125 90)scale(0.12 -0.12)">
     <defs>
      <path d="M 19.671875 64.796875 
L 19.671875 8.109375 
L 31.59375 8.109375 
Q 46.6875 8.109375 53.6875 14.9375 
Q 60.6875 21.78125 60.6875 36.53125 
Q 60.6875 51.171875 53.6875 57.984375 
Q 46.6875 64.796875 31.59375 64.796875 
z
M 9.8125 72.90625 
L 30.078125 72.90625 
Q 51.265625 72.90625 61.171875 64.09375 
Q 71.09375 55.28125 71.09375 36.53125 
Q 71.09375 17.671875 61.125 8.828125 
Q 51.171875 0 30.078125 0 
L 9.8125 0 
z
" id="DejaVuSans-68"/>
      <path d="M 44.28125 53.078125 
L 44.28125 44.578125 
Q 40.484375 46.53125 36.375 47.5 
Q 32.28125 48.484375 27.875 48.484375 
Q 21.1875 48.484375 17.84375 46.4375 
Q 14.5 44.390625 14.5 40.28125 
Q 14.5 37.15625 16.890625 35.375 
Q 19.28125 33.59375 26.515625 31.984375 
L 29.59375 31.296875 
Q 39.15625 29.25 43.1875 25.515625 
Q 47.21875 21.78125 47.21875 15.09375 
Q 47.21875 7.46875 41.1875 3.015625 
Q 35.15625 -1.421875 24.609375 -1.421875 
Q 20.21875 -1.421875 15.453125 -0.5625 
Q 10.6875 0.296875 5.421875 2 
L 5.421875 11.28125 
Q 10.40625 8.6875 15.234375 7.390625 
Q 20.0625 6.109375 24.8125 6.109375 
Q 31.15625 6.109375 34.5625 8.28125 
Q 37.984375 10.453125 37.984375 14.40625 
Q 37.984375 18.0625 35.515625 20.015625 
Q 33.0625 21.96875 24.703125 23.78125 
L 21.578125 24.515625 
Q 13.234375 26.265625 9.515625 29.90625 
Q 5.8125 33.546875 5.8125 39.890625 
Q 5.8125 47.609375 11.28125 51.796875 
Q 16.75 56 26.8125 56 
Q 31.78125 56 36.171875 55.265625 
Q 40.578125 54.546875 44.28125 53.078125 
z
" id="DejaVuSans-115"/>
      <path id="DejaVuSans-32"/>
      <path d="M 34.1875 63.1875 
L 20.796875 26.90625 
L 47.609375 26.90625 
z
M 28.609375 72.90625 
L 39.796875 72.90625 
L 67.578125 0 
L 57.328125 0 
L 50.6875 18.703125 
L 17.828125 18.703125 
L 11.1875 0 
L 0.78125 0 
z
" id="DejaVuSans-65"/>
     </defs>
     <use xlink:href="#DejaVuSans-68"/>
     <use x="77.001953" xlink:href="#DejaVuSans-97"/>
     <use x="138.28125" xlink:href="#DejaVuSans-116"/>
     <use x="177.490234" xlink:href="#DejaVuSans-97"/>
     <use x="238.769531" xlink:href="#DejaVuSans-115"/>
     <use x="290.869141" xlink:href="#DejaVuSans-101"/>
     <use x="352.392578" xlink:href="#DejaVuSans-116"/>
     <use x="391.601562" xlink:href="#DejaVuSans-32"/>
     <use x="423.388672" xlink:href="#DejaVuSans-65"/>
    </g>
   </g>
  </g>
  <g id="axes_2">
   <g id="patch_99">
    <path d="M 53.76 871.68 
L 588.8 871.68 
L 588.8 519.098182 
L 53.76 519.098182 
z
" style="fill:#f5f5f5;"/>
   </g>
   <g id="patch_100">
    <path clip-path="url(#pefbcfa1464)" d="M 78.08 871.68 
L 82.018462 871.68 
L 82.018462 797.059509 
L 78.08 797.059509 
z
" style="fill:#bfbf00;"/>
   </g>
   <g id="patch_101">
    <path clip-path="url(#pefbcfa1464)" d="M 83.003077 871.68 
L 86.941538 871.68 
L 86.941538 797.059509 
L 83.003077 797.059509 
z
" style="fill:#bfbf00;"/>
   </g>
   <g id="patch_102">
    <path clip-path="url(#pefbcfa1464)" d="M 87.926154 871.68 
L 91.864615 871.68 
L 91.864615 759.749264 
L 87.926154 759.749264 
z
" style="fill:#bfbf00;"/>
   </g>
   <g id="patch_103">
    <path clip-path="url(#pefbcfa1464)" d="M 92.849231 871.68 
L 96.787692 871.68 
L 96.787692 797.059509 
L 92.849231 797.059509 
z
" style="fill:#bfbf00;"/>
   </g>
   <g id="patch_104">
    <path clip-path="url(#pefbcfa1464)" d="M 97.772308 871.68 
L 101.710769 871.68 
L 101.710769 647.818528 
L 97.772308 647.818528 
z
" style="fill:#bfbf00;"/>
   </g>
   <g id="patch_105">
    <path clip-path="url(#pefbcfa1464)" d="M 102.695385 871.68 
L 106.633846 871.68 
L 106.633846 759.749264 
L 102.695385 759.749264 
z
" style="fill:#bfbf00;"/>
   </g>
   <g id="patch_106">
    <path clip-path="url(#pefbcfa1464)" d="M 107.618462 871.68 
L 111.556923 871.68 
L 111.556923 647.818528 
L 107.618462 647.818528 
z
" style="fill:#bfbf00;"/>
   </g>
   <g id="patch_107">
    <path clip-path="url(#pefbcfa1464)" d="M 112.541538 871.68 
L 116.48 871.68 
L 116.48 722.439019 
L 112.541538 722.439019 
z
" style="fill:#bfbf00;"/>
   </g>
   <g id="patch_108">
    <path clip-path="url(#pefbcfa1464)" d="M 117.464615 871.68 
L 121.403077 871.68 
L 121.403077 797.059509 
L 117.464615 797.059509 
z
" style="fill:#bfbf00;"/>
   </g>
   <g id="patch_109">
    <path clip-path="url(#pefbcfa1464)" d="M 122.387692 871.68 
L 126.326154 871.68 
L 126.326154 759.749264 
L 122.387692 759.749264 
z
" style="fill:#bfbf00;"/>
   </g>
   <g id="patch_110">
    <path clip-path="url(#pefbcfa1464)" d="M 127.310769 871.68 
L 131.249231 871.68 
L 131.249231 610.508283 
L 127.310769 610.508283 
z
" style="fill:#bfbf00;"/>
   </g>
   <g id="patch_111">
    <path clip-path="url(#pefbcfa1464)" d="M 132.233846 871.68 
L 136.172308 871.68 
L 136.172308 722.439019 
L 132.233846 722.439019 
z
" style="fill:#bfbf00;"/>
   </g>
   <g id="patch_112">
    <path clip-path="url(#pefbcfa1464)" d="M 137.156923 871.68 
L 141.095385 871.68 
L 141.095385 797.059509 
L 137.156923 797.059509 
z
" style="fill:#bfbf00;"/>
   </g>
   <g id="patch_113">
    <path clip-path="url(#pefbcfa1464)" d="M 142.08 871.68 
L 146.018462 871.68 
L 146.018462 722.439019 
L 142.08 722.439019 
z
" style="fill:#bfbf00;"/>
   </g>
   <g id="patch_114">
    <path clip-path="url(#pefbcfa1464)" d="M 147.003077 871.68 
L 150.941538 871.68 
L 150.941538 685.128773 
L 147.003077 685.128773 
z
" style="fill:#bfbf00;"/>
   </g>
   <g id="patch_115">
    <path clip-path="url(#pefbcfa1464)" d="M 151.926154 871.68 
L 155.864615 871.68 
L 155.864615 759.749264 
L 151.926154 759.749264 
z
" style="fill:#bfbf00;"/>
   </g>
   <g id="patch_116">
    <path clip-path="url(#pefbcfa1464)" d="M 156.849231 871.68 
L 160.787692 871.68 
L 160.787692 759.749264 
L 156.849231 759.749264 
z
" style="fill:#bfbf00;"/>
   </g>
   <g id="patch_117">
    <path clip-path="url(#pefbcfa1464)" d="M 161.772308 871.68 
L 165.710769 871.68 
L 165.710769 834.369755 
L 161.772308 834.369755 
z
" style="fill:#bfbf00;"/>
   </g>
   <g id="patch_118">
    <path clip-path="url(#pefbcfa1464)" d="M 166.695385 871.68 
L 170.633846 871.68 
L 170.633846 834.369755 
L 166.695385 834.369755 
z
" style="fill:#bfbf00;"/>
   </g>
   <g id="patch_119">
    <path clip-path="url(#pefbcfa1464)" d="M 171.618462 871.68 
L 175.556923 871.68 
L 175.556923 685.128773 
L 171.618462 685.128773 
z
" style="fill:#bfbf00;"/>
   </g>
   <g id="patch_120">
    <path clip-path="url(#pefbcfa1464)" d="M 176.541538 871.68 
L 180.48 871.68 
L 180.48 647.818528 
L 176.541538 647.818528 
z
" style="fill:#bfbf00;"/>
   </g>
   <g id="patch_121">
    <path clip-path="url(#pefbcfa1464)" d="M 181.464615 871.68 
L 185.403077 871.68 
L 185.403077 722.439019 
L 181.464615 722.439019 
z
" style="fill:#bfbf00;"/>
   </g>
   <g id="patch_122">
    <path clip-path="url(#pefbcfa1464)" d="M 186.387692 871.68 
L 190.326154 871.68 
L 190.326154 573.198038 
L 186.387692 573.198038 
z
" style="fill:#bfbf00;"/>
   </g>
   <g id="patch_123">
    <path clip-path="url(#pefbcfa1464)" d="M 191.310769 871.68 
L 195.249231 871.68 
L 195.249231 722.439019 
L 191.310769 722.439019 
z
" style="fill:#bfbf00;"/>
   </g>
   <g id="patch_124">
    <path clip-path="url(#pefbcfa1464)" d="M 196.233846 871.68 
L 200.172308 871.68 
L 200.172308 759.749264 
L 196.233846 759.749264 
z
" style="fill:#bfbf00;"/>
   </g>
   <g id="patch_125">
    <path clip-path="url(#pefbcfa1464)" d="M 201.156923 871.68 
L 205.095385 871.68 
L 205.095385 610.508283 
L 201.156923 610.508283 
z
" style="fill:#bfbf00;"/>
   </g>
   <g id="patch_126">
    <path clip-path="url(#pefbcfa1464)" d="M 206.08 871.68 
L 210.018462 871.68 
L 210.018462 834.369755 
L 206.08 834.369755 
z
" style="fill:#bfbf00;"/>
   </g>
   <g id="patch_127">
    <path clip-path="url(#pefbcfa1464)" d="M 211.003077 871.68 
L 214.941538 871.68 
L 214.941538 722.439019 
L 211.003077 722.439019 
z
" style="fill:#bfbf00;"/>
   </g>
   <g id="patch_128">
    <path clip-path="url(#pefbcfa1464)" d="M 215.926154 871.68 
L 219.864615 871.68 
L 219.864615 722.439019 
L 215.926154 722.439019 
z
" style="fill:#bfbf00;"/>
   </g>
   <g id="patch_129">
    <path clip-path="url(#pefbcfa1464)" d="M 220.849231 871.68 
L 224.787692 871.68 
L 224.787692 722.439019 
L 220.849231 722.439019 
z
" style="fill:#bfbf00;"/>
   </g>
   <g id="patch_130">
    <path clip-path="url(#pefbcfa1464)" d="M 225.772308 871.68 
L 229.710769 871.68 
L 229.710769 610.508283 
L 225.772308 610.508283 
z
" style="fill:#bfbf00;"/>
   </g>
   <g id="patch_131">
    <path clip-path="url(#pefbcfa1464)" d="M 230.695385 871.68 
L 234.633846 871.68 
L 234.633846 797.059509 
L 230.695385 797.059509 
z
" style="fill:#bfbf00;"/>
   </g>
   <g id="patch_132">
    <path clip-path="url(#pefbcfa1464)" d="M 235.618462 871.68 
L 239.556923 871.68 
L 239.556923 685.128773 
L 235.618462 685.128773 
z
" style="fill:#bfbf00;"/>
   </g>
   <g id="patch_133">
    <path clip-path="url(#pefbcfa1464)" d="M 240.541538 871.68 
L 244.48 871.68 
L 244.48 685.128773 
L 240.541538 685.128773 
z
" style="fill:#bfbf00;"/>
   </g>
   <g id="patch_134">
    <path clip-path="url(#pefbcfa1464)" d="M 245.464615 871.68 
L 249.403077 871.68 
L 249.403077 834.369755 
L 245.464615 834.369755 
z
" style="fill:#bfbf00;"/>
   </g>
   <g id="patch_135">
    <path clip-path="url(#pefbcfa1464)" d="M 250.387692 871.68 
L 254.326154 871.68 
L 254.326154 685.128773 
L 250.387692 685.128773 
z
" style="fill:#bfbf00;"/>
   </g>
   <g id="patch_136">
    <path clip-path="url(#pefbcfa1464)" d="M 255.310769 871.68 
L 259.249231 871.68 
L 259.249231 722.439019 
L 255.310769 722.439019 
z
" style="fill:#bfbf00;"/>
   </g>
   <g id="patch_137">
    <path clip-path="url(#pefbcfa1464)" d="M 260.233846 871.68 
L 264.172308 871.68 
L 264.172308 722.439019 
L 260.233846 722.439019 
z
" style="fill:#bfbf00;"/>
   </g>
   <g id="patch_138">
    <path clip-path="url(#pefbcfa1464)" d="M 265.156923 871.68 
L 269.095385 871.68 
L 269.095385 759.749264 
L 265.156923 759.749264 
z
" style="fill:#bfbf00;"/>
   </g>
   <g id="patch_139">
    <path clip-path="url(#pefbcfa1464)" d="M 270.08 871.68 
L 274.018462 871.68 
L 274.018462 685.128773 
L 270.08 685.128773 
z
" style="fill:#bfbf00;"/>
   </g>
   <g id="patch_140">
    <path clip-path="url(#pefbcfa1464)" d="M 275.003077 871.68 
L 278.941538 871.68 
L 278.941538 759.749264 
L 275.003077 759.749264 
z
" style="fill:#bfbf00;"/>
   </g>
   <g id="patch_141">
    <path clip-path="url(#pefbcfa1464)" d="M 279.926154 871.68 
L 283.864615 871.68 
L 283.864615 759.749264 
L 279.926154 759.749264 
z
" style="fill:#bfbf00;"/>
   </g>
   <g id="patch_142">
    <path clip-path="url(#pefbcfa1464)" d="M 284.849231 871.68 
L 288.787692 871.68 
L 288.787692 759.749264 
L 284.849231 759.749264 
z
" style="fill:#bfbf00;"/>
   </g>
   <g id="patch_143">
    <path clip-path="url(#pefbcfa1464)" d="M 289.772308 871.68 
L 293.710769 871.68 
L 293.710769 759.749264 
L 289.772308 759.749264 
z
" style="fill:#bfbf00;"/>
   </g>
   <g id="patch_144">
    <path clip-path="url(#pefbcfa1464)" d="M 294.695385 871.68 
L 298.633846 871.68 
L 298.633846 759.749264 
L 294.695385 759.749264 
z
" style="fill:#bfbf00;"/>
   </g>
   <g id="patch_145">
    <path clip-path="url(#pefbcfa1464)" d="M 299.618462 871.68 
L 303.556923 871.68 
L 303.556923 759.749264 
L 299.618462 759.749264 
z
" style="fill:#bfbf00;"/>
   </g>
   <g id="patch_146">
    <path clip-path="url(#pefbcfa1464)" d="M 304.541538 871.68 
L 308.48 871.68 
L 308.48 535.887792 
L 304.541538 535.887792 
z
" style="fill:#bfbf00;"/>
   </g>
   <g id="patch_147">
    <path clip-path="url(#pefbcfa1464)" d="M 309.464615 871.68 
L 313.403077 871.68 
L 313.403077 797.059509 
L 309.464615 797.059509 
z
" style="fill:#bfbf00;"/>
   </g>
   <g id="patch_148">
    <path clip-path="url(#pefbcfa1464)" d="M 314.387692 871.68 
L 318.326154 871.68 
L 318.326154 685.128773 
L 314.387692 685.128773 
z
" style="fill:#bfbf00;"/>
   </g>
   <g id="patch_149">
    <path clip-path="url(#pefbcfa1464)" d="M 319.310769 871.68 
L 323.249231 871.68 
L 323.249231 685.128773 
L 319.310769 685.128773 
z
" style="fill:#bfbf00;"/>
   </g>
   <g id="patch_150">
    <path clip-path="url(#pefbcfa1464)" d="M 324.233846 871.68 
L 328.172308 871.68 
L 328.172308 647.818528 
L 324.233846 647.818528 
z
" style="fill:#bfbf00;"/>
   </g>
   <g id="patch_151">
    <path clip-path="url(#pefbcfa1464)" d="M 329.156923 871.68 
L 333.095385 871.68 
L 333.095385 797.059509 
L 329.156923 797.059509 
z
" style="fill:#bfbf00;"/>
   </g>
   <g id="patch_152">
    <path clip-path="url(#pefbcfa1464)" d="M 334.08 871.68 
L 338.018462 871.68 
L 338.018462 610.508283 
L 334.08 610.508283 
z
" style="fill:#bfbf00;"/>
   </g>
   <g id="patch_153">
    <path clip-path="url(#pefbcfa1464)" d="M 339.003077 871.68 
L 342.941538 871.68 
L 342.941538 722.439019 
L 339.003077 722.439019 
z
" style="fill:#bfbf00;"/>
   </g>
   <g id="patch_154">
    <path clip-path="url(#pefbcfa1464)" d="M 343.926154 871.68 
L 347.864615 871.68 
L 347.864615 759.749264 
L 343.926154 759.749264 
z
" style="fill:#bfbf00;"/>
   </g>
   <g id="patch_155">
    <path clip-path="url(#pefbcfa1464)" d="M 348.849231 871.68 
L 352.787692 871.68 
L 352.787692 797.059509 
L 348.849231 797.059509 
z
" style="fill:#bfbf00;"/>
   </g>
   <g id="patch_156">
    <path clip-path="url(#pefbcfa1464)" d="M 353.772308 871.68 
L 357.710769 871.68 
L 357.710769 722.439019 
L 353.772308 722.439019 
z
" style="fill:#bfbf00;"/>
   </g>
   <g id="patch_157">
    <path clip-path="url(#pefbcfa1464)" d="M 358.695385 871.68 
L 362.633846 871.68 
L 362.633846 759.749264 
L 358.695385 759.749264 
z
" style="fill:#bfbf00;"/>
   </g>
   <g id="patch_158">
    <path clip-path="url(#pefbcfa1464)" d="M 363.618462 871.68 
L 367.556923 871.68 
L 367.556923 759.749264 
L 363.618462 759.749264 
z
" style="fill:#bfbf00;"/>
   </g>
   <g id="patch_159">
    <path clip-path="url(#pefbcfa1464)" d="M 368.541538 871.68 
L 372.48 871.68 
L 372.48 685.128773 
L 368.541538 685.128773 
z
" style="fill:#bfbf00;"/>
   </g>
   <g id="patch_160">
    <path clip-path="url(#pefbcfa1464)" d="M 373.464615 871.68 
L 377.403077 871.68 
L 377.403077 573.198038 
L 373.464615 573.198038 
z
" style="fill:#bfbf00;"/>
   </g>
   <g id="patch_161">
    <path clip-path="url(#pefbcfa1464)" d="M 378.387692 871.68 
L 382.326154 871.68 
L 382.326154 797.059509 
L 378.387692 797.059509 
z
" style="fill:#bfbf00;"/>
   </g>
   <g id="patch_162">
    <path clip-path="url(#pefbcfa1464)" d="M 383.310769 871.68 
L 387.249231 871.68 
L 387.249231 647.818528 
L 383.310769 647.818528 
z
" style="fill:#bfbf00;"/>
   </g>
   <g id="patch_163">
    <path clip-path="url(#pefbcfa1464)" d="M 388.233846 871.68 
L 392.172308 871.68 
L 392.172308 610.508283 
L 388.233846 610.508283 
z
" style="fill:#bfbf00;"/>
   </g>
   <g id="patch_164">
    <path clip-path="url(#pefbcfa1464)" d="M 393.156923 871.68 
L 397.095385 871.68 
L 397.095385 759.749264 
L 393.156923 759.749264 
z
" style="fill:#bfbf00;"/>
   </g>
   <g id="patch_165">
    <path clip-path="url(#pefbcfa1464)" d="M 398.08 871.68 
L 402.018462 871.68 
L 402.018462 647.818528 
L 398.08 647.818528 
z
" style="fill:#bfbf00;"/>
   </g>
   <g id="patch_166">
    <path clip-path="url(#pefbcfa1464)" d="M 403.003077 871.68 
L 406.941538 871.68 
L 406.941538 647.818528 
L 403.003077 647.818528 
z
" style="fill:#bfbf00;"/>
   </g>
   <g id="patch_167">
    <path clip-path="url(#pefbcfa1464)" d="M 407.926154 871.68 
L 411.864615 871.68 
L 411.864615 535.887792 
L 407.926154 535.887792 
z
" style="fill:#bfbf00;"/>
   </g>
   <g id="patch_168">
    <path clip-path="url(#pefbcfa1464)" d="M 412.849231 871.68 
L 416.787692 871.68 
L 416.787692 797.059509 
L 412.849231 797.059509 
z
" style="fill:#bfbf00;"/>
   </g>
   <g id="patch_169">
    <path clip-path="url(#pefbcfa1464)" d="M 417.772308 871.68 
L 421.710769 871.68 
L 421.710769 759.749264 
L 417.772308 759.749264 
z
" style="fill:#bfbf00;"/>
   </g>
   <g id="patch_170">
    <path clip-path="url(#pefbcfa1464)" d="M 422.695385 871.68 
L 426.633846 871.68 
L 426.633846 573.198038 
L 422.695385 573.198038 
z
" style="fill:#bfbf00;"/>
   </g>
   <g id="patch_171">
    <path clip-path="url(#pefbcfa1464)" d="M 427.618462 871.68 
L 431.556923 871.68 
L 431.556923 759.749264 
L 427.618462 759.749264 
z
" style="fill:#bfbf00;"/>
   </g>
   <g id="patch_172">
    <path clip-path="url(#pefbcfa1464)" d="M 432.541538 871.68 
L 436.48 871.68 
L 436.48 722.439019 
L 432.541538 722.439019 
z
" style="fill:#bfbf00;"/>
   </g>
   <g id="patch_173">
    <path clip-path="url(#pefbcfa1464)" d="M 437.464615 871.68 
L 441.403077 871.68 
L 441.403077 685.128773 
L 437.464615 685.128773 
z
" style="fill:#bfbf00;"/>
   </g>
   <g id="patch_174">
    <path clip-path="url(#pefbcfa1464)" d="M 442.387692 871.68 
L 446.326154 871.68 
L 446.326154 685.128773 
L 442.387692 685.128773 
z
" style="fill:#bfbf00;"/>
   </g>
   <g id="patch_175">
    <path clip-path="url(#pefbcfa1464)" d="M 447.310769 871.68 
L 451.249231 871.68 
L 451.249231 759.749264 
L 447.310769 759.749264 
z
" style="fill:#bfbf00;"/>
   </g>
   <g id="patch_176">
    <path clip-path="url(#pefbcfa1464)" d="M 452.233846 871.68 
L 456.172308 871.68 
L 456.172308 647.818528 
L 452.233846 647.818528 
z
" style="fill:#bfbf00;"/>
   </g>
   <g id="patch_177">
    <path clip-path="url(#pefbcfa1464)" d="M 457.156923 871.68 
L 461.095385 871.68 
L 461.095385 759.749264 
L 457.156923 759.749264 
z
" style="fill:#bfbf00;"/>
   </g>
   <g id="patch_178">
    <path clip-path="url(#pefbcfa1464)" d="M 462.08 871.68 
L 466.018462 871.68 
L 466.018462 797.059509 
L 462.08 797.059509 
z
" style="fill:#bfbf00;"/>
   </g>
   <g id="patch_179">
    <path clip-path="url(#pefbcfa1464)" d="M 467.003077 871.68 
L 470.941538 871.68 
L 470.941538 685.128773 
L 467.003077 685.128773 
z
" style="fill:#bfbf00;"/>
   </g>
   <g id="patch_180">
    <path clip-path="url(#pefbcfa1464)" d="M 471.926154 871.68 
L 475.864615 871.68 
L 475.864615 685.128773 
L 471.926154 685.128773 
z
" style="fill:#bfbf00;"/>
   </g>
   <g id="patch_181">
    <path clip-path="url(#pefbcfa1464)" d="M 476.849231 871.68 
L 480.787692 871.68 
L 480.787692 722.439019 
L 476.849231 722.439019 
z
" style="fill:#bfbf00;"/>
   </g>
   <g id="patch_182">
    <path clip-path="url(#pefbcfa1464)" d="M 481.772308 871.68 
L 485.710769 871.68 
L 485.710769 722.439019 
L 481.772308 722.439019 
z
" style="fill:#bfbf00;"/>
   </g>
   <g id="patch_183">
    <path clip-path="url(#pefbcfa1464)" d="M 486.695385 871.68 
L 490.633846 871.68 
L 490.633846 834.369755 
L 486.695385 834.369755 
z
" style="fill:#bfbf00;"/>
   </g>
   <g id="patch_184">
    <path clip-path="url(#pefbcfa1464)" d="M 491.618462 871.68 
L 495.556923 871.68 
L 495.556923 797.059509 
L 491.618462 797.059509 
z
" style="fill:#bfbf00;"/>
   </g>
   <g id="patch_185">
    <path clip-path="url(#pefbcfa1464)" d="M 496.541538 871.68 
L 500.48 871.68 
L 500.48 759.749264 
L 496.541538 759.749264 
z
" style="fill:#bfbf00;"/>
   </g>
   <g id="patch_186">
    <path clip-path="url(#pefbcfa1464)" d="M 501.464615 871.68 
L 505.403077 871.68 
L 505.403077 647.818528 
L 501.464615 647.818528 
z
" style="fill:#bfbf00;"/>
   </g>
   <g id="patch_187">
    <path clip-path="url(#pefbcfa1464)" d="M 506.387692 871.68 
L 510.326154 871.68 
L 510.326154 647.818528 
L 506.387692 647.818528 
z
" style="fill:#bfbf00;"/>
   </g>
   <g id="patch_188">
    <path clip-path="url(#pefbcfa1464)" d="M 511.310769 871.68 
L 515.249231 871.68 
L 515.249231 722.439019 
L 511.310769 722.439019 
z
" style="fill:#bfbf00;"/>
   </g>
   <g id="patch_189">
    <path clip-path="url(#pefbcfa1464)" d="M 516.233846 871.68 
L 520.172308 871.68 
L 520.172308 722.439019 
L 516.233846 722.439019 
z
" style="fill:#bfbf00;"/>
   </g>
   <g id="patch_190">
    <path clip-path="url(#pefbcfa1464)" d="M 521.156923 871.68 
L 525.095385 871.68 
L 525.095385 834.369755 
L 521.156923 834.369755 
z
" style="fill:#bfbf00;"/>
   </g>
   <g id="patch_191">
    <path clip-path="url(#pefbcfa1464)" d="M 526.08 871.68 
L 530.018462 871.68 
L 530.018462 834.369755 
L 526.08 834.369755 
z
" style="fill:#bfbf00;"/>
   </g>
   <g id="patch_192">
    <path clip-path="url(#pefbcfa1464)" d="M 531.003077 871.68 
L 534.941538 871.68 
L 534.941538 573.198038 
L 531.003077 573.198038 
z
" style="fill:#bfbf00;"/>
   </g>
   <g id="patch_193">
    <path clip-path="url(#pefbcfa1464)" d="M 535.926154 871.68 
L 539.864615 871.68 
L 539.864615 759.749264 
L 535.926154 759.749264 
z
" style="fill:#bfbf00;"/>
   </g>
   <g id="patch_194">
    <path clip-path="url(#pefbcfa1464)" d="M 540.849231 871.68 
L 544.787692 871.68 
L 544.787692 685.128773 
L 540.849231 685.128773 
z
" style="fill:#bfbf00;"/>
   </g>
   <g id="patch_195">
    <path clip-path="url(#pefbcfa1464)" d="M 545.772308 871.68 
L 549.710769 871.68 
L 549.710769 759.749264 
L 545.772308 759.749264 
z
" style="fill:#bfbf00;"/>
   </g>
   <g id="patch_196">
    <path clip-path="url(#pefbcfa1464)" d="M 550.695385 871.68 
L 554.633846 871.68 
L 554.633846 759.749264 
L 550.695385 759.749264 
z
" style="fill:#bfbf00;"/>
   </g>
   <g id="patch_197">
    <path clip-path="url(#pefbcfa1464)" d="M 555.618462 871.68 
L 559.556923 871.68 
L 559.556923 722.439019 
L 555.618462 722.439019 
z
" style="fill:#bfbf00;"/>
   </g>
   <g id="patch_198">
    <path clip-path="url(#pefbcfa1464)" d="M 560.541538 871.68 
L 564.48 871.68 
L 564.48 685.128773 
L 560.541538 685.128773 
z
" style="fill:#bfbf00;"/>
   </g>
   <g id="matplotlib.axis_3">
    <g id="xtick_7">
     <g id="line2d_23">
      <path clip-path="url(#pefbcfa1464)" d="M 75.126154 871.68 
L 75.126154 519.098182 
" style="fill:none;stroke:#b0b0b0;stroke-linecap:square;stroke-width:0.8;"/>
     </g>
     <g id="line2d_24">
      <g>
       <use style="stroke:#000000;stroke-width:0.8;" x="75.126154" xlink:href="#m551abca56d" y="871.68"/>
      </g>
     </g>
     <g id="text_15">
      <!-- 0 -->
      <g transform="translate(71.944904 886.278437)scale(0.1 -0.1)">
       <use xlink:href="#DejaVuSans-48"/>
      </g>
     </g>
    </g>
    <g id="xtick_8">
     <g id="line2d_25">
      <path clip-path="url(#pefbcfa1464)" d="M 173.587692 871.68 
L 173.587692 519.098182 
" style="fill:none;stroke:#b0b0b0;stroke-linecap:square;stroke-width:0.8;"/>
     </g>
     <g id="line2d_26">
      <g>
       <use style="stroke:#000000;stroke-width:0.8;" x="173.587692" xlink:href="#m551abca56d" y="871.68"/>
      </g>
     </g>
     <g id="text_16">
      <!-- 20 -->
      <g transform="translate(167.225192 886.278437)scale(0.1 -0.1)">
       <use xlink:href="#DejaVuSans-50"/>
       <use x="63.623047" xlink:href="#DejaVuSans-48"/>
      </g>
     </g>
    </g>
    <g id="xtick_9">
     <g id="line2d_27">
      <path clip-path="url(#pefbcfa1464)" d="M 272.049231 871.68 
L 272.049231 519.098182 
" style="fill:none;stroke:#b0b0b0;stroke-linecap:square;stroke-width:0.8;"/>
     </g>
     <g id="line2d_28">
      <g>
       <use style="stroke:#000000;stroke-width:0.8;" x="272.049231" xlink:href="#m551abca56d" y="871.68"/>
      </g>
     </g>
     <g id="text_17">
      <!-- 40 -->
      <g transform="translate(265.686731 886.278437)scale(0.1 -0.1)">
       <use xlink:href="#DejaVuSans-52"/>
       <use x="63.623047" xlink:href="#DejaVuSans-48"/>
      </g>
     </g>
    </g>
    <g id="xtick_10">
     <g id="line2d_29">
      <path clip-path="url(#pefbcfa1464)" d="M 370.510769 871.68 
L 370.510769 519.098182 
" style="fill:none;stroke:#b0b0b0;stroke-linecap:square;stroke-width:0.8;"/>
     </g>
     <g id="line2d_30">
      <g>
       <use style="stroke:#000000;stroke-width:0.8;" x="370.510769" xlink:href="#m551abca56d" y="871.68"/>
      </g>
     </g>
     <g id="text_18">
      <!-- 60 -->
      <g transform="translate(364.148269 886.278437)scale(0.1 -0.1)">
       <use xlink:href="#DejaVuSans-54"/>
       <use x="63.623047" xlink:href="#DejaVuSans-48"/>
      </g>
     </g>
    </g>
    <g id="xtick_11">
     <g id="line2d_31">
      <path clip-path="url(#pefbcfa1464)" d="M 468.972308 871.68 
L 468.972308 519.098182 
" style="fill:none;stroke:#b0b0b0;stroke-linecap:square;stroke-width:0.8;"/>
     </g>
     <g id="line2d_32">
      <g>
       <use style="stroke:#000000;stroke-width:0.8;" x="468.972308" xlink:href="#m551abca56d" y="871.68"/>
      </g>
     </g>
     <g id="text_19">
      <!-- 80 -->
      <g transform="translate(462.609808 886.278437)scale(0.1 -0.1)">
       <use xlink:href="#DejaVuSans-56"/>
       <use x="63.623047" xlink:href="#DejaVuSans-48"/>
      </g>
     </g>
    </g>
    <g id="xtick_12">
     <g id="line2d_33">
      <path clip-path="url(#pefbcfa1464)" d="M 567.433846 871.68 
L 567.433846 519.098182 
" style="fill:none;stroke:#b0b0b0;stroke-linecap:square;stroke-width:0.8;"/>
     </g>
     <g id="line2d_34">
      <g>
       <use style="stroke:#000000;stroke-width:0.8;" x="567.433846" xlink:href="#m551abca56d" y="871.68"/>
      </g>
     </g>
     <g id="text_20">
      <!-- 100 -->
      <g transform="translate(557.890096 886.278437)scale(0.1 -0.1)">
       <use xlink:href="#DejaVuSans-49"/>
       <use x="63.623047" xlink:href="#DejaVuSans-48"/>
       <use x="127.246094" xlink:href="#DejaVuSans-48"/>
      </g>
     </g>
    </g>
    <g id="text_21">
     <!-- Value -->
     <g transform="translate(307.54875 899.956562)scale(0.1 -0.1)">
      <use xlink:href="#DejaVuSans-86"/>
      <use x="60.658203" xlink:href="#DejaVuSans-97"/>
      <use x="121.9375" xlink:href="#DejaVuSans-108"/>
      <use x="149.720703" xlink:href="#DejaVuSans-117"/>
      <use x="213.099609" xlink:href="#DejaVuSans-101"/>
     </g>
    </g>
   </g>
   <g id="matplotlib.axis_4">
    <g id="ytick_6">
     <g id="line2d_35">
      <path clip-path="url(#pefbcfa1464)" d="M 53.76 871.68 
L 588.8 871.68 
" style="fill:none;stroke:#b0b0b0;stroke-linecap:square;stroke-width:0.8;"/>
     </g>
     <g id="line2d_36">
      <g>
       <use style="stroke:#000000;stroke-width:0.8;" x="53.76" xlink:href="#mb2484bd681" y="871.68"/>
      </g>
     </g>
     <g id="text_22">
      <!-- 0 -->
      <g transform="translate(40.3975 875.479219)scale(0.1 -0.1)">
       <use xlink:href="#DejaVuSans-48"/>
      </g>
     </g>
    </g>
    <g id="ytick_7">
     <g id="line2d_37">
      <path clip-path="url(#pefbcfa1464)" d="M 53.76 797.059509 
L 588.8 797.059509 
" style="fill:none;stroke:#b0b0b0;stroke-linecap:square;stroke-width:0.8;"/>
     </g>
     <g id="line2d_38">
      <g>
       <use style="stroke:#000000;stroke-width:0.8;" x="53.76" xlink:href="#mb2484bd681" y="797.059509"/>
      </g>
     </g>
     <g id="text_23">
      <!-- 2 -->
      <g transform="translate(40.3975 800.858728)scale(0.1 -0.1)">
       <use xlink:href="#DejaVuSans-50"/>
      </g>
     </g>
    </g>
    <g id="ytick_8">
     <g id="line2d_39">
      <path clip-path="url(#pefbcfa1464)" d="M 53.76 722.439019 
L 588.8 722.439019 
" style="fill:none;stroke:#b0b0b0;stroke-linecap:square;stroke-width:0.8;"/>
     </g>
     <g id="line2d_40">
      <g>
       <use style="stroke:#000000;stroke-width:0.8;" x="53.76" xlink:href="#mb2484bd681" y="722.439019"/>
      </g>
     </g>
     <g id="text_24">
      <!-- 4 -->
      <g transform="translate(40.3975 726.238238)scale(0.1 -0.1)">
       <use xlink:href="#DejaVuSans-52"/>
      </g>
     </g>
    </g>
    <g id="ytick_9">
     <g id="line2d_41">
      <path clip-path="url(#pefbcfa1464)" d="M 53.76 647.818528 
L 588.8 647.818528 
" style="fill:none;stroke:#b0b0b0;stroke-linecap:square;stroke-width:0.8;"/>
     </g>
     <g id="line2d_42">
      <g>
       <use style="stroke:#000000;stroke-width:0.8;" x="53.76" xlink:href="#mb2484bd681" y="647.818528"/>
      </g>
     </g>
     <g id="text_25">
      <!-- 6 -->
      <g transform="translate(40.3975 651.617747)scale(0.1 -0.1)">
       <use xlink:href="#DejaVuSans-54"/>
      </g>
     </g>
    </g>
    <g id="ytick_10">
     <g id="line2d_43">
      <path clip-path="url(#pefbcfa1464)" d="M 53.76 573.198038 
L 588.8 573.198038 
" style="fill:none;stroke:#b0b0b0;stroke-linecap:square;stroke-width:0.8;"/>
     </g>
     <g id="line2d_44">
      <g>
       <use style="stroke:#000000;stroke-width:0.8;" x="53.76" xlink:href="#mb2484bd681" y="573.198038"/>
      </g>
     </g>
     <g id="text_26">
      <!-- 8 -->
      <g transform="translate(40.3975 576.997256)scale(0.1 -0.1)">
       <use xlink:href="#DejaVuSans-56"/>
      </g>
     </g>
    </g>
    <g id="text_27">
     <!-- Count -->
     <g transform="translate(34.317813 710.237528)rotate(-90)scale(0.1 -0.1)">
      <use xlink:href="#DejaVuSans-67"/>
      <use x="69.824219" xlink:href="#DejaVuSans-111"/>
      <use x="131.005859" xlink:href="#DejaVuSans-117"/>
      <use x="194.384766" xlink:href="#DejaVuSans-110"/>
      <use x="257.763672" xlink:href="#DejaVuSans-116"/>
     </g>
    </g>
   </g>
   <g id="patch_199">
    <path d="M 53.76 871.68 
L 53.76 519.098182 
" style="fill:none;stroke:#000000;stroke-linecap:square;stroke-linejoin:miter;stroke-width:0.8;"/>
   </g>
   <g id="patch_200">
    <path d="M 588.8 871.68 
L 588.8 519.098182 
" style="fill:none;stroke:#000000;stroke-linecap:square;stroke-linejoin:miter;stroke-width:0.8;"/>
   </g>
   <g id="patch_201">
    <path d="M 53.76 871.68 
L 588.8 871.68 
" style="fill:none;stroke:#000000;stroke-linecap:square;stroke-linejoin:miter;stroke-width:0.8;"/>
   </g>
   <g id="patch_202">
    <path d="M 53.76 519.098182 
L 588.8 519.098182 
" style="fill:none;stroke:#000000;stroke-linecap:square;stroke-linejoin:miter;stroke-width:0.8;"/>
   </g>
   <g id="text_28">
    <!-- Dataset B -->
    <g transform="translate(291.760938 513.098182)scale(0.12 -0.12)">
     <defs>
      <path d="M 19.671875 34.8125 
L 19.671875 8.109375 
L 35.5 8.109375 
Q 43.453125 8.109375 47.28125 11.40625 
Q 51.125 14.703125 51.125 21.484375 
Q 51.125 28.328125 47.28125 31.5625 
Q 43.453125 34.8125 35.5 34.8125 
z
M 19.671875 64.796875 
L 19.671875 42.828125 
L 34.28125 42.828125 
Q 41.5 42.828125 45.03125 45.53125 
Q 48.578125 48.25 48.578125 53.8125 
Q 48.578125 59.328125 45.03125 62.0625 
Q 41.5 64.796875 34.28125 64.796875 
z
M 9.8125 72.90625 
L 35.015625 72.90625 
Q 46.296875 72.90625 52.390625 68.21875 
Q 58.5 63.53125 58.5 54.890625 
Q 58.5 48.1875 55.375 44.234375 
Q 52.25 40.28125 46.1875 39.3125 
Q 53.46875 37.75 57.5 32.78125 
Q 61.53125 27.828125 61.53125 20.40625 
Q 61.53125 10.640625 54.890625 5.3125 
Q 48.25 0 35.984375 0 
L 9.8125 0 
z
" id="DejaVuSans-66"/>
     </defs>
     <use xlink:href="#DejaVuSans-68"/>
     <use x="77.001953" xlink:href="#DejaVuSans-97"/>
     <use x="138.28125" xlink:href="#DejaVuSans-116"/>
     <use x="177.490234" xlink:href="#DejaVuSans-97"/>
     <use x="238.769531" xlink:href="#DejaVuSans-115"/>
     <use x="290.869141" xlink:href="#DejaVuSans-101"/>
     <use x="352.392578" xlink:href="#DejaVuSans-116"/>
     <use x="391.601562" xlink:href="#DejaVuSans-32"/>
     <use x="423.388672" xlink:href="#DejaVuSans-66"/>
    </g>
   </g>
  </g>
  <g id="text_29">
   <!-- Sample 4 - Bar Diagram -->
   <g transform="translate(247.871562 28.318125)scale(0.12 -0.12)">
    <defs>
     <path d="M 53.515625 70.515625 
L 53.515625 60.890625 
Q 47.90625 63.578125 42.921875 64.890625 
Q 37.9375 66.21875 33.296875 66.21875 
Q 25.25 66.21875 20.875 63.09375 
Q 16.5 59.96875 16.5 54.203125 
Q 16.5 49.359375 19.40625 46.890625 
Q 22.3125 44.4375 30.421875 42.921875 
L 36.375 41.703125 
Q 47.40625 39.59375 52.65625 34.296875 
Q 57.90625 29 57.90625 20.125 
Q 57.90625 9.515625 50.796875 4.046875 
Q 43.703125 -1.421875 29.984375 -1.421875 
Q 24.8125 -1.421875 18.96875 -0.25 
Q 13.140625 0.921875 6.890625 3.21875 
L 6.890625 13.375 
Q 12.890625 10.015625 18.65625 8.296875 
Q 24.421875 6.59375 29.984375 6.59375 
Q 38.421875 6.59375 43.015625 9.90625 
Q 47.609375 13.234375 47.609375 19.390625 
Q 47.609375 24.75 44.3125 27.78125 
Q 41.015625 30.8125 33.5 32.328125 
L 27.484375 33.5 
Q 16.453125 35.6875 11.515625 40.375 
Q 6.59375 45.0625 6.59375 53.421875 
Q 6.59375 63.09375 13.40625 68.65625 
Q 20.21875 74.21875 32.171875 74.21875 
Q 37.3125 74.21875 42.625 73.28125 
Q 47.953125 72.359375 53.515625 70.515625 
z
" id="DejaVuSans-83"/>
     <path d="M 52 44.1875 
Q 55.375 50.25 60.0625 53.125 
Q 64.75 56 71.09375 56 
Q 79.640625 56 84.28125 50.015625 
Q 88.921875 44.046875 88.921875 33.015625 
L 88.921875 0 
L 79.890625 0 
L 79.890625 32.71875 
Q 79.890625 40.578125 77.09375 44.375 
Q 74.3125 48.1875 68.609375 48.1875 
Q 61.625 48.1875 57.5625 43.546875 
Q 53.515625 38.921875 53.515625 30.90625 
L 53.515625 0 
L 44.484375 0 
L 44.484375 32.71875 
Q 44.484375 40.625 41.703125 44.40625 
Q 38.921875 48.1875 33.109375 48.1875 
Q 26.21875 48.1875 22.15625 43.53125 
Q 18.109375 38.875 18.109375 30.90625 
L 18.109375 0 
L 9.078125 0 
L 9.078125 54.6875 
L 18.109375 54.6875 
L 18.109375 46.1875 
Q 21.1875 51.21875 25.484375 53.609375 
Q 29.78125 56 35.6875 56 
Q 41.65625 56 45.828125 52.96875 
Q 50 49.953125 52 44.1875 
z
" id="DejaVuSans-109"/>
     <path d="M 18.109375 8.203125 
L 18.109375 -20.796875 
L 9.078125 -20.796875 
L 9.078125 54.6875 
L 18.109375 54.6875 
L 18.109375 46.390625 
Q 20.953125 51.265625 25.265625 53.625 
Q 29.59375 56 35.59375 56 
Q 45.5625 56 51.78125 48.09375 
Q 58.015625 40.1875 58.015625 27.296875 
Q 58.015625 14.40625 51.78125 6.484375 
Q 45.5625 -1.421875 35.59375 -1.421875 
Q 29.59375 -1.421875 25.265625 0.953125 
Q 20.953125 3.328125 18.109375 8.203125 
z
M 48.6875 27.296875 
Q 48.6875 37.203125 44.609375 42.84375 
Q 40.53125 48.484375 33.40625 48.484375 
Q 26.265625 48.484375 22.1875 42.84375 
Q 18.109375 37.203125 18.109375 27.296875 
Q 18.109375 17.390625 22.1875 11.75 
Q 26.265625 6.109375 33.40625 6.109375 
Q 40.53125 6.109375 44.609375 11.75 
Q 48.6875 17.390625 48.6875 27.296875 
z
" id="DejaVuSans-112"/>
     <path d="M 4.890625 31.390625 
L 31.203125 31.390625 
L 31.203125 23.390625 
L 4.890625 23.390625 
z
" id="DejaVuSans-45"/>
     <path d="M 41.109375 46.296875 
Q 39.59375 47.171875 37.8125 47.578125 
Q 36.03125 48 33.890625 48 
Q 26.265625 48 22.1875 43.046875 
Q 18.109375 38.09375 18.109375 28.8125 
L 18.109375 0 
L 9.078125 0 
L 9.078125 54.6875 
L 18.109375 54.6875 
L 18.109375 46.1875 
Q 20.953125 51.171875 25.484375 53.578125 
Q 30.03125 56 36.53125 56 
Q 37.453125 56 38.578125 55.875 
Q 39.703125 55.765625 41.0625 55.515625 
z
" id="DejaVuSans-114"/>
     <path d="M 9.421875 54.6875 
L 18.40625 54.6875 
L 18.40625 0 
L 9.421875 0 
z
M 9.421875 75.984375 
L 18.40625 75.984375 
L 18.40625 64.59375 
L 9.421875 64.59375 
z
" id="DejaVuSans-105"/>
     <path d="M 45.40625 27.984375 
Q 45.40625 37.75 41.375 43.109375 
Q 37.359375 48.484375 30.078125 48.484375 
Q 22.859375 48.484375 18.828125 43.109375 
Q 14.796875 37.75 14.796875 27.984375 
Q 14.796875 18.265625 18.828125 12.890625 
Q 22.859375 7.515625 30.078125 7.515625 
Q 37.359375 7.515625 41.375 12.890625 
Q 45.40625 18.265625 45.40625 27.984375 
z
M 54.390625 6.78125 
Q 54.390625 -7.171875 48.1875 -13.984375 
Q 42 -20.796875 29.203125 -20.796875 
Q 24.46875 -20.796875 20.265625 -20.09375 
Q 16.0625 -19.390625 12.109375 -17.921875 
L 12.109375 -9.1875 
Q 16.0625 -11.328125 19.921875 -12.34375 
Q 23.78125 -13.375 27.78125 -13.375 
Q 36.625 -13.375 41.015625 -8.765625 
Q 45.40625 -4.15625 45.40625 5.171875 
L 45.40625 9.625 
Q 42.625 4.78125 38.28125 2.390625 
Q 33.9375 0 27.875 0 
Q 17.828125 0 11.671875 7.65625 
Q 5.515625 15.328125 5.515625 27.984375 
Q 5.515625 40.671875 11.671875 48.328125 
Q 17.828125 56 27.875 56 
Q 33.9375 56 38.28125 53.609375 
Q 42.625 51.21875 45.40625 46.390625 
L 45.40625 54.6875 
L 54.390625 54.6875 
z
" id="DejaVuSans-103"/>
    </defs>
    <use xlink:href="#DejaVuSans-83"/>
    <use x="63.476562" xlink:href="#DejaVuSans-97"/>
    <use x="124.755859" xlink:href="#DejaVuSans-109"/>
    <use x="222.167969" xlink:href="#DejaVuSans-112"/>
    <use x="285.644531" xlink:href="#DejaVuSans-108"/>
    <use x="313.427734" xlink:href="#DejaVuSans-101"/>
    <use x="374.951172" xlink:href="#DejaVuSans-32"/>
    <use x="406.738281" xlink:href="#DejaVuSans-52"/>
    <use x="470.361328" xlink:href="#DejaVuSans-32"/>
    <use x="502.148438" xlink:href="#DejaVuSans-45"/>
    <use x="538.232422" xlink:href="#DejaVuSans-32"/>
    <use x="570.019531" xlink:href="#DejaVuSans-66"/>
    <use x="638.623047" xlink:href="#DejaVuSans-97"/>
    <use x="699.902344" xlink:href="#DejaVuSans-114"/>
    <use x="741.015625" xlink:href="#DejaVuSans-32"/>
    <use x="772.802734" xlink:href="#DejaVuSans-68"/>
    <use x="849.804688" xlink:href="#DejaVuSans-105"/>
    <use x="877.587891" xlink:href="#DejaVuSans-97"/>
    <use x="938.867188" xlink:href="#DejaVuSans-103"/>
    <use x="1002.34375" xlink:href="#DejaVuSans-114"/>
    <use x="1043.457031" xlink:href="#DejaVuSans-97"/>
    <use x="1104.736328" xlink:href="#DejaVuSans-109"/>
   </g>
  </g>
 </g>
 <defs>
  <clipPath id="p4569caa1c1">
   <rect height="352.581818" width="535.04" x="53.76" y="96"/>
  </clipPath>
  <clipPath id="pefbcfa1464">
   <rect height="352.581818" width="535.04" x="53.76" y="519.098182"/>
  </clipPath>
 </defs>
</svg>
