<?xml version="1.0" encoding="utf-8" standalone="no"?>
<!DOCTYPE svg PUBLIC "-//W3C//DTD SVG 1.1//EN"
  "http://www.w3.org/Graphics/SVG/1.1/DTD/svg11.dtd">
<!-- Created with matplotlib (https://matplotlib.org/) -->
<svg height="960pt" version="1.1" viewBox="0 0 640 960" width="640pt" xmlns="http://www.w3.org/2000/svg" xmlns:xlink="http://www.w3.org/1999/xlink">
 <metadata>
  <rdf:RDF xmlns:cc="http://creativecommons.org/ns#" xmlns:dc="http://purl.org/dc/elements/1.1/" xmlns:rdf="http://www.w3.org/1999/02/22-rdf-syntax-ns#">
   <cc:Work>
    <dc:type rdf:resource="http://purl.org/dc/dcmitype/StillImage"/>
    <dc:date>2023-12-17T22:03:44.892228</dc:date>
    <dc:format>image/svg+xml</dc:format>
    <dc:creator>
     <cc:Agent>
      <dc:title>Matplotlib v3.3.4, https://matplotlib.org/</dc:title>
     </cc:Agent>
    </dc:creator>
   </cc:Work>
  </rdf:RDF>
 </metadata>
 <defs>
  <style type="text/css">*{stroke-linecap:butt;stroke-linejoin:round;}</style>
 </defs>
 <g id="figure_1">
  <g id="patch_1">
   <path d="M 0 960 
L 640 960 
L 640 0 
L 0 0 
z
" style="fill:#a9a9a9;"/>
  </g>
  <g id="axes_1">
   <g id="patch_2">
    <path d="M 324.933491 133.520121 
C 308.141682 133.520121 291.464785 136.295917 275.578301 141.735076 
C 259.691817 147.174235 244.813178 155.202313 231.545046 165.494131 
L 324.933491 285.889793 
L 324.933491 133.520121 
z
" style="fill:#092436;opacity:0.5;stroke:#092436;stroke-linejoin:miter;"/>
   </g>
   <g id="patch_3">
    <path d="M 231.545046 165.494131 
C 221.761946 173.082681 212.94016 181.835451 205.275009 191.558649 
C 197.609857 201.281847 191.158331 211.90318 186.063273 223.187483 
L 324.933491 285.889793 
L 231.545046 165.494131 
z
" style="fill:#4c2604;opacity:0.5;stroke:#4c2604;stroke-linejoin:miter;"/>
   </g>
   <g id="patch_4">
    <path d="M 186.063273 223.187483 
C 179.318442 238.125626 175.027907 254.054685 173.357338 270.359595 
C 171.686768 286.664504 172.657947 303.132668 176.233372 319.128204 
L 324.933491 285.889793 
L 186.063273 223.187483 
z
" style="fill:#0d300d;opacity:0.5;stroke:#0d300d;stroke-linejoin:miter;"/>
   </g>
   <g id="patch_5">
    <path d="M 176.233372 319.128204 
C 179.721232 334.731993 185.643521 349.689988 193.782508 363.452265 
C 201.921496 377.214542 212.176202 389.610353 224.169617 400.18397 
L 324.933491 285.889793 
L 176.233372 319.128204 
z
" style="fill:#400c0c;opacity:0.5;stroke:#400c0c;stroke-linejoin:miter;"/>
   </g>
   <g id="patch_6">
    <path d="M 224.169617 400.18397 
C 236.163031 410.757588 249.746353 419.377826 264.420195 425.727765 
C 279.094038 432.077704 294.676344 436.07856 310.594237 437.583244 
L 324.933491 285.889793 
L 224.169617 400.18397 
z
" style="fill:#2c1f39;opacity:0.5;stroke:#2c1f39;stroke-linejoin:miter;"/>
   </g>
   <g id="patch_7">
    <path d="M 310.594237 437.583244 
C 325.313944 438.974666 340.158111 438.216199 354.659339 435.331726 
C 369.160568 432.447252 383.165042 427.467367 396.231804 420.548873 
L 324.933491 285.889793 
L 310.594237 437.583244 
z
" style="fill:#2a1a16;opacity:0.5;stroke:#2a1a16;stroke-linejoin:miter;"/>
   </g>
   <g id="patch_8">
    <path d="M 396.231804 420.548873 
C 411.071827 412.691485 424.511417 402.434714 436.006201 390.194013 
C 447.500985 377.953311 456.893638 363.896213 463.803709 348.592104 
L 324.933491 285.889793 
L 396.231804 420.548873 
z
" style="fill:#44243a;opacity:0.5;stroke:#44243a;stroke-linejoin:miter;"/>
   </g>
   <g id="patch_9">
    <path d="M 463.803709 348.592104 
C 470.879072 332.921912 475.251319 316.166574 476.734882 299.037221 
C 478.218445 281.907867 476.792034 264.650311 472.51619 247.996998 
L 324.933491 285.889793 
L 463.803709 348.592104 
z
" style="fill:#262626;opacity:0.5;stroke:#262626;stroke-linejoin:miter;"/>
   </g>
   <g id="patch_10">
    <path d="M 472.51619 247.996998 
C 467.439981 228.226468 458.442384 209.676052 446.058903 193.449804 
C 433.675422 177.223556 418.156704 163.649901 400.426369 153.536695 
L 324.933491 285.889793 
L 472.51619 247.996998 
z
" style="fill:#38390a;opacity:0.5;stroke:#38390a;stroke-linejoin:miter;"/>
   </g>
   <g id="patch_11">
    <path d="M 400.426369 153.536695 
C 388.975903 147.005465 376.726127 141.987708 363.98422 138.609253 
C 351.242314 135.230797 338.115681 133.520121 324.933491 133.520121 
L 324.933491 285.889793 
L 400.426369 153.536695 
z
" style="fill:#07393e;opacity:0.5;stroke:#07393e;stroke-linejoin:miter;"/>
   </g>
   <g id="patch_12">
    <path d="M 327.980884 130.472727 
C 311.189076 130.472727 294.512179 133.248524 278.625695 138.687683 
C 262.739211 144.126842 247.860571 152.15492 234.592439 162.446737 
L 327.980884 282.8424 
L 327.980884 130.472727 
z
" style="fill:#1f77b4;"/>
   </g>
   <g id="patch_13">
    <path d="M 234.592439 162.446737 
C 224.80934 170.035287 215.987554 178.788057 208.322402 188.511255 
C 200.657251 198.234453 194.205725 208.855786 189.110666 220.14009 
L 327.980884 282.8424 
L 234.592439 162.446737 
z
" style="fill:#ff7f0e;"/>
   </g>
   <g id="patch_14">
    <path d="M 189.110666 220.14009 
C 182.365835 235.078233 178.075301 251.007292 176.404731 267.312201 
C 174.734162 283.61711 175.70534 300.085274 179.280766 316.080811 
L 327.980884 282.8424 
L 189.110666 220.14009 
z
" style="fill:#2ca02c;"/>
   </g>
   <g id="patch_15">
    <path d="M 179.280766 316.080811 
C 182.768625 331.6846 188.690914 346.642595 196.829902 360.404872 
C 204.968889 374.167148 215.223595 386.562959 227.21701 397.136577 
L 327.980884 282.8424 
L 179.280766 316.080811 
z
" style="fill:#d62728;"/>
   </g>
   <g id="patch_16">
    <path d="M 227.21701 397.136577 
C 239.210425 407.710194 252.793746 416.330433 267.467589 422.680372 
C 282.141431 429.03031 297.723738 433.031167 313.641631 434.535851 
L 327.980884 282.8424 
L 227.21701 397.136577 
z
" style="fill:#9467bd;"/>
   </g>
   <g id="patch_17">
    <path d="M 313.641631 434.535851 
C 328.361337 435.927273 343.205504 435.168806 357.706733 432.284332 
C 372.207961 429.399859 386.212436 424.419974 399.279197 417.50148 
L 327.980884 282.8424 
L 313.641631 434.535851 
z
" style="fill:#8c564b;"/>
   </g>
   <g id="patch_18">
    <path d="M 399.279197 417.50148 
C 414.11922 409.644092 427.558811 399.387321 439.053595 387.146619 
C 450.548378 374.905918 459.941032 360.848819 466.851102 345.544711 
L 327.980884 282.8424 
L 399.279197 417.50148 
z
" style="fill:#e377c2;"/>
   </g>
   <g id="patch_19">
    <path d="M 466.851102 345.544711 
C 473.926466 329.874518 478.298712 313.11918 479.782275 295.989827 
C 481.265838 278.860474 479.839428 261.602918 475.563584 244.949604 
L 327.980884 282.8424 
L 466.851102 345.544711 
z
" style="fill:#7f7f7f;"/>
   </g>
   <g id="patch_20">
    <path d="M 475.563584 244.949604 
C 470.487375 225.179075 461.489777 206.628659 449.106296 190.40241 
C 436.722815 174.176162 421.204098 160.602507 403.473762 150.489302 
L 327.980884 282.8424 
L 475.563584 244.949604 
z
" style="fill:#bcbd22;"/>
   </g>
   <g id="patch_21">
    <path d="M 403.473762 150.489302 
C 392.023296 143.958071 379.77352 138.940315 367.031614 135.561859 
C 354.289707 132.183404 341.163074 130.472727 327.980884 130.472727 
L 327.980884 282.8424 
L 403.473762 150.489302 
z
" style="fill:#17becf;"/>
   </g>
   <g id="matplotlib.axis_1"/>
   <g id="matplotlib.axis_2"/>
   <g id="text_1">
    <!-- 10.5% -->
    <g transform="translate(282.484177 199.108945)scale(0.1 -0.1)">
     <defs>
      <path d="M 12.40625 8.296875 
L 28.515625 8.296875 
L 28.515625 63.921875 
L 10.984375 60.40625 
L 10.984375 69.390625 
L 28.421875 72.90625 
L 38.28125 72.90625 
L 38.28125 8.296875 
L 54.390625 8.296875 
L 54.390625 0 
L 12.40625 0 
z
" id="DejaVuSans-49"/>
      <path d="M 31.78125 66.40625 
Q 24.171875 66.40625 20.328125 58.90625 
Q 16.5 51.421875 16.5 36.375 
Q 16.5 21.390625 20.328125 13.890625 
Q 24.171875 6.390625 31.78125 6.390625 
Q 39.453125 6.390625 43.28125 13.890625 
Q 47.125 21.390625 47.125 36.375 
Q 47.125 51.421875 43.28125 58.90625 
Q 39.453125 66.40625 31.78125 66.40625 
z
M 31.78125 74.21875 
Q 44.046875 74.21875 50.515625 64.515625 
Q 56.984375 54.828125 56.984375 36.375 
Q 56.984375 17.96875 50.515625 8.265625 
Q 44.046875 -1.421875 31.78125 -1.421875 
Q 19.53125 -1.421875 13.0625 8.265625 
Q 6.59375 17.96875 6.59375 36.375 
Q 6.59375 54.828125 13.0625 64.515625 
Q 19.53125 74.21875 31.78125 74.21875 
z
" id="DejaVuSans-48"/>
      <path d="M 10.6875 12.40625 
L 21 12.40625 
L 21 0 
L 10.6875 0 
z
" id="DejaVuSans-46"/>
      <path d="M 10.796875 72.90625 
L 49.515625 72.90625 
L 49.515625 64.59375 
L 19.828125 64.59375 
L 19.828125 46.734375 
Q 21.96875 47.46875 24.109375 47.828125 
Q 26.265625 48.1875 28.421875 48.1875 
Q 40.625 48.1875 47.75 41.5 
Q 54.890625 34.8125 54.890625 23.390625 
Q 54.890625 11.625 47.5625 5.09375 
Q 40.234375 -1.421875 26.90625 -1.421875 
Q 22.3125 -1.421875 17.546875 -0.640625 
Q 12.796875 0.140625 7.71875 1.703125 
L 7.71875 11.625 
Q 12.109375 9.234375 16.796875 8.0625 
Q 21.484375 6.890625 26.703125 6.890625 
Q 35.15625 6.890625 40.078125 11.328125 
Q 45.015625 15.765625 45.015625 23.390625 
Q 45.015625 31 40.078125 35.4375 
Q 35.15625 39.890625 26.703125 39.890625 
Q 22.75 39.890625 18.8125 39.015625 
Q 14.890625 38.140625 10.796875 36.28125 
z
" id="DejaVuSans-53"/>
      <path d="M 72.703125 32.078125 
Q 68.453125 32.078125 66.03125 28.46875 
Q 63.625 24.859375 63.625 18.40625 
Q 63.625 12.0625 66.03125 8.421875 
Q 68.453125 4.78125 72.703125 4.78125 
Q 76.859375 4.78125 79.265625 8.421875 
Q 81.6875 12.0625 81.6875 18.40625 
Q 81.6875 24.8125 79.265625 28.4375 
Q 76.859375 32.078125 72.703125 32.078125 
z
M 72.703125 38.28125 
Q 80.421875 38.28125 84.953125 32.90625 
Q 89.5 27.546875 89.5 18.40625 
Q 89.5 9.28125 84.9375 3.921875 
Q 80.375 -1.421875 72.703125 -1.421875 
Q 64.890625 -1.421875 60.34375 3.921875 
Q 55.8125 9.28125 55.8125 18.40625 
Q 55.8125 27.59375 60.375 32.9375 
Q 64.9375 38.28125 72.703125 38.28125 
z
M 22.3125 68.015625 
Q 18.109375 68.015625 15.6875 64.375 
Q 13.28125 60.75 13.28125 54.390625 
Q 13.28125 47.953125 15.671875 44.328125 
Q 18.0625 40.71875 22.3125 40.71875 
Q 26.5625 40.71875 28.96875 44.328125 
Q 31.390625 47.953125 31.390625 54.390625 
Q 31.390625 60.6875 28.953125 64.34375 
Q 26.515625 68.015625 22.3125 68.015625 
z
M 66.40625 74.21875 
L 74.21875 74.21875 
L 28.609375 -1.421875 
L 20.796875 -1.421875 
z
M 22.3125 74.21875 
Q 30.03125 74.21875 34.609375 68.875 
Q 39.203125 63.53125 39.203125 54.390625 
Q 39.203125 45.171875 34.640625 39.84375 
Q 30.078125 34.515625 22.3125 34.515625 
Q 14.546875 34.515625 10.03125 39.859375 
Q 5.515625 45.21875 5.515625 54.390625 
Q 5.515625 63.484375 10.046875 68.84375 
Q 14.59375 74.21875 22.3125 74.21875 
z
" id="DejaVuSans-37"/>
     </defs>
     <use xlink:href="#DejaVuSans-49"/>
     <use x="63.623047" xlink:href="#DejaVuSans-48"/>
     <use x="127.246094" xlink:href="#DejaVuSans-46"/>
     <use x="159.033203" xlink:href="#DejaVuSans-53"/>
     <use x="222.65625" xlink:href="#DejaVuSans-37"/>
    </g>
   </g>
   <g id="text_2">
    <!-- 7.8% -->
    <g transform="translate(243.483451 229.003088)scale(0.1 -0.1)">
     <defs>
      <path d="M 8.203125 72.90625 
L 55.078125 72.90625 
L 55.078125 68.703125 
L 28.609375 0 
L 18.3125 0 
L 43.21875 64.59375 
L 8.203125 64.59375 
z
" id="DejaVuSans-55"/>
      <path d="M 31.78125 34.625 
Q 24.75 34.625 20.71875 30.859375 
Q 16.703125 27.09375 16.703125 20.515625 
Q 16.703125 13.921875 20.71875 10.15625 
Q 24.75 6.390625 31.78125 6.390625 
Q 38.8125 6.390625 42.859375 10.171875 
Q 46.921875 13.96875 46.921875 20.515625 
Q 46.921875 27.09375 42.890625 30.859375 
Q 38.875 34.625 31.78125 34.625 
z
M 21.921875 38.8125 
Q 15.578125 40.375 12.03125 44.71875 
Q 8.5 49.078125 8.5 55.328125 
Q 8.5 64.0625 14.71875 69.140625 
Q 20.953125 74.21875 31.78125 74.21875 
Q 42.671875 74.21875 48.875 69.140625 
Q 55.078125 64.0625 55.078125 55.328125 
Q 55.078125 49.078125 51.53125 44.71875 
Q 48 40.375 41.703125 38.8125 
Q 48.828125 37.15625 52.796875 32.3125 
Q 56.78125 27.484375 56.78125 20.515625 
Q 56.78125 9.90625 50.3125 4.234375 
Q 43.84375 -1.421875 31.78125 -1.421875 
Q 19.734375 -1.421875 13.25 4.234375 
Q 6.78125 9.90625 6.78125 20.515625 
Q 6.78125 27.484375 10.78125 32.3125 
Q 14.796875 37.15625 21.921875 38.8125 
z
M 18.3125 54.390625 
Q 18.3125 48.734375 21.84375 45.5625 
Q 25.390625 42.390625 31.78125 42.390625 
Q 38.140625 42.390625 41.71875 45.5625 
Q 45.3125 48.734375 45.3125 54.390625 
Q 45.3125 60.0625 41.71875 63.234375 
Q 38.140625 66.40625 31.78125 66.40625 
Q 25.390625 66.40625 21.84375 63.234375 
Q 18.3125 60.0625 18.3125 54.390625 
z
" id="DejaVuSans-56"/>
     </defs>
     <use xlink:href="#DejaVuSans-55"/>
     <use x="63.623047" xlink:href="#DejaVuSans-46"/>
     <use x="95.410156" xlink:href="#DejaVuSans-56"/>
     <use x="159.033203" xlink:href="#DejaVuSans-37"/>
    </g>
   </g>
   <g id="text_3">
    <!-- 10.2% -->
    <g transform="translate(221.151599 276.283656)scale(0.1 -0.1)">
     <defs>
      <path d="M 19.1875 8.296875 
L 53.609375 8.296875 
L 53.609375 0 
L 7.328125 0 
L 7.328125 8.296875 
Q 12.9375 14.109375 22.625 23.890625 
Q 32.328125 33.6875 34.8125 36.53125 
Q 39.546875 41.84375 41.421875 45.53125 
Q 43.3125 49.21875 43.3125 52.78125 
Q 43.3125 58.59375 39.234375 62.25 
Q 35.15625 65.921875 28.609375 65.921875 
Q 23.96875 65.921875 18.8125 64.3125 
Q 13.671875 62.703125 7.8125 59.421875 
L 7.8125 69.390625 
Q 13.765625 71.78125 18.9375 73 
Q 24.125 74.21875 28.421875 74.21875 
Q 39.75 74.21875 46.484375 68.546875 
Q 53.21875 62.890625 53.21875 53.421875 
Q 53.21875 48.921875 51.53125 44.890625 
Q 49.859375 40.875 45.40625 35.40625 
Q 44.1875 33.984375 37.640625 27.21875 
Q 31.109375 20.453125 19.1875 8.296875 
z
" id="DejaVuSans-50"/>
     </defs>
     <use xlink:href="#DejaVuSans-49"/>
     <use x="63.623047" xlink:href="#DejaVuSans-48"/>
     <use x="127.246094" xlink:href="#DejaVuSans-46"/>
     <use x="159.033203" xlink:href="#DejaVuSans-50"/>
     <use x="222.65625" xlink:href="#DejaVuSans-37"/>
    </g>
   </g>
   <g id="text_4">
    <!-- 10.0% -->
    <g transform="translate(233.406701 332.139258)scale(0.1 -0.1)">
     <use xlink:href="#DejaVuSans-49"/>
     <use x="63.623047" xlink:href="#DejaVuSans-48"/>
     <use x="127.246094" xlink:href="#DejaVuSans-46"/>
     <use x="159.033203" xlink:href="#DejaVuSans-48"/>
     <use x="222.65625" xlink:href="#DejaVuSans-37"/>
    </g>
   </g>
   <g id="text_5">
    <!-- 10.0% -->
    <g transform="translate(275.789313 369.504558)scale(0.1 -0.1)">
     <use xlink:href="#DejaVuSans-49"/>
     <use x="63.623047" xlink:href="#DejaVuSans-48"/>
     <use x="127.246094" xlink:href="#DejaVuSans-46"/>
     <use x="159.033203" xlink:href="#DejaVuSans-48"/>
     <use x="222.65625" xlink:href="#DejaVuSans-37"/>
    </g>
   </g>
   <g id="text_6">
    <!-- 9.3% -->
    <g transform="translate(333.114049 375.266934)scale(0.1 -0.1)">
     <defs>
      <path d="M 10.984375 1.515625 
L 10.984375 10.5 
Q 14.703125 8.734375 18.5 7.8125 
Q 22.3125 6.890625 25.984375 6.890625 
Q 35.75 6.890625 40.890625 13.453125 
Q 46.046875 20.015625 46.78125 33.40625 
Q 43.953125 29.203125 39.59375 26.953125 
Q 35.25 24.703125 29.984375 24.703125 
Q 19.046875 24.703125 12.671875 31.3125 
Q 6.296875 37.9375 6.296875 49.421875 
Q 6.296875 60.640625 12.9375 67.421875 
Q 19.578125 74.21875 30.609375 74.21875 
Q 43.265625 74.21875 49.921875 64.515625 
Q 56.59375 54.828125 56.59375 36.375 
Q 56.59375 19.140625 48.40625 8.859375 
Q 40.234375 -1.421875 26.421875 -1.421875 
Q 22.703125 -1.421875 18.890625 -0.6875 
Q 15.09375 0.046875 10.984375 1.515625 
z
M 30.609375 32.421875 
Q 37.25 32.421875 41.125 36.953125 
Q 45.015625 41.5 45.015625 49.421875 
Q 45.015625 57.28125 41.125 61.84375 
Q 37.25 66.40625 30.609375 66.40625 
Q 23.96875 66.40625 20.09375 61.84375 
Q 16.21875 57.28125 16.21875 49.421875 
Q 16.21875 41.5 20.09375 36.953125 
Q 23.96875 32.421875 30.609375 32.421875 
z
" id="DejaVuSans-57"/>
      <path d="M 40.578125 39.3125 
Q 47.65625 37.796875 51.625 33 
Q 55.609375 28.21875 55.609375 21.1875 
Q 55.609375 10.40625 48.1875 4.484375 
Q 40.765625 -1.421875 27.09375 -1.421875 
Q 22.515625 -1.421875 17.65625 -0.515625 
Q 12.796875 0.390625 7.625 2.203125 
L 7.625 11.71875 
Q 11.71875 9.328125 16.59375 8.109375 
Q 21.484375 6.890625 26.8125 6.890625 
Q 36.078125 6.890625 40.9375 10.546875 
Q 45.796875 14.203125 45.796875 21.1875 
Q 45.796875 27.640625 41.28125 31.265625 
Q 36.765625 34.90625 28.71875 34.90625 
L 20.21875 34.90625 
L 20.21875 43.015625 
L 29.109375 43.015625 
Q 36.375 43.015625 40.234375 45.921875 
Q 44.09375 48.828125 44.09375 54.296875 
Q 44.09375 59.90625 40.109375 62.90625 
Q 36.140625 65.921875 28.71875 65.921875 
Q 24.65625 65.921875 20.015625 65.03125 
Q 15.375 64.15625 9.8125 62.3125 
L 9.8125 71.09375 
Q 15.4375 72.65625 20.34375 73.4375 
Q 25.25 74.21875 29.59375 74.21875 
Q 40.828125 74.21875 47.359375 69.109375 
Q 53.90625 64.015625 53.90625 55.328125 
Q 53.90625 49.265625 50.4375 45.09375 
Q 46.96875 40.921875 40.578125 39.3125 
z
" id="DejaVuSans-51"/>
     </defs>
     <use xlink:href="#DejaVuSans-57"/>
     <use x="63.623047" xlink:href="#DejaVuSans-46"/>
     <use x="95.410156" xlink:href="#DejaVuSans-51"/>
     <use x="159.033203" xlink:href="#DejaVuSans-37"/>
    </g>
   </g>
   <g id="text_7">
    <!-- 10.5% -->
    <g transform="translate(378.740917 348.184307)scale(0.1 -0.1)">
     <use xlink:href="#DejaVuSans-49"/>
     <use x="63.623047" xlink:href="#DejaVuSans-48"/>
     <use x="127.246094" xlink:href="#DejaVuSans-46"/>
     <use x="159.033203" xlink:href="#DejaVuSans-53"/>
     <use x="222.65625" xlink:href="#DejaVuSans-37"/>
    </g>
   </g>
   <g id="text_8">
    <!-- 10.8% -->
    <g transform="translate(403.178125 293.490231)scale(0.1 -0.1)">
     <use xlink:href="#DejaVuSans-49"/>
     <use x="63.623047" xlink:href="#DejaVuSans-48"/>
     <use x="127.246094" xlink:href="#DejaVuSans-46"/>
     <use x="159.033203" xlink:href="#DejaVuSans-56"/>
     <use x="222.65625" xlink:href="#DejaVuSans-37"/>
    </g>
   </g>
   <g id="text_9">
    <!-- 12.7% -->
    <g transform="translate(384.772538 230.137781)scale(0.1 -0.1)">
     <use xlink:href="#DejaVuSans-49"/>
     <use x="63.623047" xlink:href="#DejaVuSans-50"/>
     <use x="127.246094" xlink:href="#DejaVuSans-46"/>
     <use x="159.033203" xlink:href="#DejaVuSans-55"/>
     <use x="222.65625" xlink:href="#DejaVuSans-37"/>
    </g>
   </g>
   <g id="text_10">
    <!-- 8.3% -->
    <g transform="translate(338.708978 197.233451)scale(0.1 -0.1)">
     <use xlink:href="#DejaVuSans-56"/>
     <use x="63.623047" xlink:href="#DejaVuSans-46"/>
     <use x="95.410156" xlink:href="#DejaVuSans-51"/>
     <use x="159.033203" xlink:href="#DejaVuSans-37"/>
    </g>
   </g>
   <g id="text_11">
    <!-- Dataset A -->
    <g transform="translate(298.493125 109.2)scale(0.12 -0.12)">
     <defs>
      <path d="M 19.671875 64.796875 
L 19.671875 8.109375 
L 31.59375 8.109375 
Q 46.6875 8.109375 53.6875 14.9375 
Q 60.6875 21.78125 60.6875 36.53125 
Q 60.6875 51.171875 53.6875 57.984375 
Q 46.6875 64.796875 31.59375 64.796875 
z
M 9.8125 72.90625 
L 30.078125 72.90625 
Q 51.265625 72.90625 61.171875 64.09375 
Q 71.09375 55.28125 71.09375 36.53125 
Q 71.09375 17.671875 61.125 8.828125 
Q 51.171875 0 30.078125 0 
L 9.8125 0 
z
" id="DejaVuSans-68"/>
      <path d="M 34.28125 27.484375 
Q 23.390625 27.484375 19.1875 25 
Q 14.984375 22.515625 14.984375 16.5 
Q 14.984375 11.71875 18.140625 8.90625 
Q 21.296875 6.109375 26.703125 6.109375 
Q 34.1875 6.109375 38.703125 11.40625 
Q 43.21875 16.703125 43.21875 25.484375 
L 43.21875 27.484375 
z
M 52.203125 31.203125 
L 52.203125 0 
L 43.21875 0 
L 43.21875 8.296875 
Q 40.140625 3.328125 35.546875 0.953125 
Q 30.953125 -1.421875 24.3125 -1.421875 
Q 15.921875 -1.421875 10.953125 3.296875 
Q 6 8.015625 6 15.921875 
Q 6 25.140625 12.171875 29.828125 
Q 18.359375 34.515625 30.609375 34.515625 
L 43.21875 34.515625 
L 43.21875 35.40625 
Q 43.21875 41.609375 39.140625 45 
Q 35.0625 48.390625 27.6875 48.390625 
Q 23 48.390625 18.546875 47.265625 
Q 14.109375 46.140625 10.015625 43.890625 
L 10.015625 52.203125 
Q 14.9375 54.109375 19.578125 55.046875 
Q 24.21875 56 28.609375 56 
Q 40.484375 56 46.34375 49.84375 
Q 52.203125 43.703125 52.203125 31.203125 
z
" id="DejaVuSans-97"/>
      <path d="M 18.3125 70.21875 
L 18.3125 54.6875 
L 36.8125 54.6875 
L 36.8125 47.703125 
L 18.3125 47.703125 
L 18.3125 18.015625 
Q 18.3125 11.328125 20.140625 9.421875 
Q 21.96875 7.515625 27.59375 7.515625 
L 36.8125 7.515625 
L 36.8125 0 
L 27.59375 0 
Q 17.1875 0 13.234375 3.875 
Q 9.28125 7.765625 9.28125 18.015625 
L 9.28125 47.703125 
L 2.6875 47.703125 
L 2.6875 54.6875 
L 9.28125 54.6875 
L 9.28125 70.21875 
z
" id="DejaVuSans-116"/>
      <path d="M 44.28125 53.078125 
L 44.28125 44.578125 
Q 40.484375 46.53125 36.375 47.5 
Q 32.28125 48.484375 27.875 48.484375 
Q 21.1875 48.484375 17.84375 46.4375 
Q 14.5 44.390625 14.5 40.28125 
Q 14.5 37.15625 16.890625 35.375 
Q 19.28125 33.59375 26.515625 31.984375 
L 29.59375 31.296875 
Q 39.15625 29.25 43.1875 25.515625 
Q 47.21875 21.78125 47.21875 15.09375 
Q 47.21875 7.46875 41.1875 3.015625 
Q 35.15625 -1.421875 24.609375 -1.421875 
Q 20.21875 -1.421875 15.453125 -0.5625 
Q 10.6875 0.296875 5.421875 2 
L 5.421875 11.28125 
Q 10.40625 8.6875 15.234375 7.390625 
Q 20.0625 6.109375 24.8125 6.109375 
Q 31.15625 6.109375 34.5625 8.28125 
Q 37.984375 10.453125 37.984375 14.40625 
Q 37.984375 18.0625 35.515625 20.015625 
Q 33.0625 21.96875 24.703125 23.78125 
L 21.578125 24.515625 
Q 13.234375 26.265625 9.515625 29.90625 
Q 5.8125 33.546875 5.8125 39.890625 
Q 5.8125 47.609375 11.28125 51.796875 
Q 16.75 56 26.8125 56 
Q 31.78125 56 36.171875 55.265625 
Q 40.578125 54.546875 44.28125 53.078125 
z
" id="DejaVuSans-115"/>
      <path d="M 56.203125 29.59375 
L 56.203125 25.203125 
L 14.890625 25.203125 
Q 15.484375 15.921875 20.484375 11.0625 
Q 25.484375 6.203125 34.421875 6.203125 
Q 39.59375 6.203125 44.453125 7.46875 
Q 49.3125 8.734375 54.109375 11.28125 
L 54.109375 2.78125 
Q 49.265625 0.734375 44.1875 -0.34375 
Q 39.109375 -1.421875 33.890625 -1.421875 
Q 20.796875 -1.421875 13.15625 6.1875 
Q 5.515625 13.8125 5.515625 26.8125 
Q 5.515625 40.234375 12.765625 48.109375 
Q 20.015625 56 32.328125 56 
Q 43.359375 56 49.78125 48.890625 
Q 56.203125 41.796875 56.203125 29.59375 
z
M 47.21875 32.234375 
Q 47.125 39.59375 43.09375 43.984375 
Q 39.0625 48.390625 32.421875 48.390625 
Q 24.90625 48.390625 20.390625 44.140625 
Q 15.875 39.890625 15.1875 32.171875 
z
" id="DejaVuSans-101"/>
      <path id="DejaVuSans-32"/>
      <path d="M 34.1875 63.1875 
L 20.796875 26.90625 
L 47.609375 26.90625 
z
M 28.609375 72.90625 
L 39.796875 72.90625 
L 67.578125 0 
L 57.328125 0 
L 50.6875 18.703125 
L 17.828125 18.703125 
L 11.1875 0 
L 0.78125 0 
z
" id="DejaVuSans-65"/>
     </defs>
     <use xlink:href="#DejaVuSans-68"/>
     <use x="77.001953" xlink:href="#DejaVuSans-97"/>
     <use x="138.28125" xlink:href="#DejaVuSans-116"/>
     <use x="177.490234" xlink:href="#DejaVuSans-97"/>
     <use x="238.769531" xlink:href="#DejaVuSans-115"/>
     <use x="290.869141" xlink:href="#DejaVuSans-101"/>
     <use x="352.392578" xlink:href="#DejaVuSans-116"/>
     <use x="391.601562" xlink:href="#DejaVuSans-32"/>
     <use x="423.388672" xlink:href="#DejaVuSans-65"/>
    </g>
   </g>
   <g id="legend_1">
    <g id="patch_22">
     <path d="M 26.988437 370.78125 
L 117.64 370.78125 
Q 119.64 370.78125 119.64 368.78125 
L 119.64 223 
Q 119.64 221 117.64 221 
L 26.988437 221 
Q 24.988437 221 24.988437 223 
L 24.988437 368.78125 
Q 24.988437 370.78125 26.988437 370.78125 
z
" style="fill:#ffffff;opacity:0.8;stroke:#cccccc;stroke-linejoin:miter;"/>
    </g>
    <g id="patch_23">
     <path d="M 28.988437 232.598438 
L 48.988437 232.598438 
L 48.988437 225.598438 
L 28.988437 225.598438 
z
" style="fill:#1f77b4;"/>
    </g>
    <g id="text_12">
     <!-- 0.5 (10.5%) -->
     <g transform="translate(56.988437 232.598438)scale(0.1 -0.1)">
      <defs>
       <path d="M 31 75.875 
Q 24.46875 64.65625 21.28125 53.65625 
Q 18.109375 42.671875 18.109375 31.390625 
Q 18.109375 20.125 21.3125 9.0625 
Q 24.515625 -2 31 -13.1875 
L 23.1875 -13.1875 
Q 15.875 -1.703125 12.234375 9.375 
Q 8.59375 20.453125 8.59375 31.390625 
Q 8.59375 42.28125 12.203125 53.3125 
Q 15.828125 64.359375 23.1875 75.875 
z
" id="DejaVuSans-40"/>
       <path d="M 8.015625 75.875 
L 15.828125 75.875 
Q 23.140625 64.359375 26.78125 53.3125 
Q 30.421875 42.28125 30.421875 31.390625 
Q 30.421875 20.453125 26.78125 9.375 
Q 23.140625 -1.703125 15.828125 -13.1875 
L 8.015625 -13.1875 
Q 14.5 -2 17.703125 9.0625 
Q 20.90625 20.125 20.90625 31.390625 
Q 20.90625 42.671875 17.703125 53.65625 
Q 14.5 64.65625 8.015625 75.875 
z
" id="DejaVuSans-41"/>
      </defs>
      <use xlink:href="#DejaVuSans-48"/>
      <use x="63.623047" xlink:href="#DejaVuSans-46"/>
      <use x="95.410156" xlink:href="#DejaVuSans-53"/>
      <use x="159.033203" xlink:href="#DejaVuSans-32"/>
      <use x="190.820312" xlink:href="#DejaVuSans-40"/>
      <use x="229.833984" xlink:href="#DejaVuSans-49"/>
      <use x="293.457031" xlink:href="#DejaVuSans-48"/>
      <use x="357.080078" xlink:href="#DejaVuSans-46"/>
      <use x="388.867188" xlink:href="#DejaVuSans-53"/>
      <use x="452.490234" xlink:href="#DejaVuSans-37"/>
      <use x="547.509766" xlink:href="#DejaVuSans-41"/>
     </g>
    </g>
    <g id="patch_24">
     <path d="M 28.988437 247.276563 
L 48.988437 247.276563 
L 48.988437 240.276563 
L 28.988437 240.276563 
z
" style="fill:#ff7f0e;"/>
    </g>
    <g id="text_13">
     <!-- 1.5 (7.8%) -->
     <g transform="translate(56.988437 247.276563)scale(0.1 -0.1)">
      <use xlink:href="#DejaVuSans-49"/>
      <use x="63.623047" xlink:href="#DejaVuSans-46"/>
      <use x="95.410156" xlink:href="#DejaVuSans-53"/>
      <use x="159.033203" xlink:href="#DejaVuSans-32"/>
      <use x="190.820312" xlink:href="#DejaVuSans-40"/>
      <use x="229.833984" xlink:href="#DejaVuSans-55"/>
      <use x="293.457031" xlink:href="#DejaVuSans-46"/>
      <use x="325.244141" xlink:href="#DejaVuSans-56"/>
      <use x="388.867188" xlink:href="#DejaVuSans-37"/>
      <use x="483.886719" xlink:href="#DejaVuSans-41"/>
     </g>
    </g>
    <g id="patch_25">
     <path d="M 28.988437 261.954688 
L 48.988437 261.954688 
L 48.988437 254.954688 
L 28.988437 254.954688 
z
" style="fill:#2ca02c;"/>
    </g>
    <g id="text_14">
     <!-- 2.5 (10.2%) -->
     <g transform="translate(56.988437 261.954688)scale(0.1 -0.1)">
      <use xlink:href="#DejaVuSans-50"/>
      <use x="63.623047" xlink:href="#DejaVuSans-46"/>
      <use x="95.410156" xlink:href="#DejaVuSans-53"/>
      <use x="159.033203" xlink:href="#DejaVuSans-32"/>
      <use x="190.820312" xlink:href="#DejaVuSans-40"/>
      <use x="229.833984" xlink:href="#DejaVuSans-49"/>
      <use x="293.457031" xlink:href="#DejaVuSans-48"/>
      <use x="357.080078" xlink:href="#DejaVuSans-46"/>
      <use x="388.867188" xlink:href="#DejaVuSans-50"/>
      <use x="452.490234" xlink:href="#DejaVuSans-37"/>
      <use x="547.509766" xlink:href="#DejaVuSans-41"/>
     </g>
    </g>
    <g id="patch_26">
     <path d="M 28.988437 276.632812 
L 48.988437 276.632812 
L 48.988437 269.632812 
L 28.988437 269.632812 
z
" style="fill:#d62728;"/>
    </g>
    <g id="text_15">
     <!-- 3.5 (10.0%) -->
     <g transform="translate(56.988437 276.632812)scale(0.1 -0.1)">
      <use xlink:href="#DejaVuSans-51"/>
      <use x="63.623047" xlink:href="#DejaVuSans-46"/>
      <use x="95.410156" xlink:href="#DejaVuSans-53"/>
      <use x="159.033203" xlink:href="#DejaVuSans-32"/>
      <use x="190.820312" xlink:href="#DejaVuSans-40"/>
      <use x="229.833984" xlink:href="#DejaVuSans-49"/>
      <use x="293.457031" xlink:href="#DejaVuSans-48"/>
      <use x="357.080078" xlink:href="#DejaVuSans-46"/>
      <use x="388.867188" xlink:href="#DejaVuSans-48"/>
      <use x="452.490234" xlink:href="#DejaVuSans-37"/>
      <use x="547.509766" xlink:href="#DejaVuSans-41"/>
     </g>
    </g>
    <g id="patch_27">
     <path d="M 28.988437 291.310938 
L 48.988437 291.310938 
L 48.988437 284.310938 
L 28.988437 284.310938 
z
" style="fill:#9467bd;"/>
    </g>
    <g id="text_16">
     <!-- 4.5 (10.0%) -->
     <g transform="translate(56.988437 291.310938)scale(0.1 -0.1)">
      <defs>
       <path d="M 37.796875 64.3125 
L 12.890625 25.390625 
L 37.796875 25.390625 
z
M 35.203125 72.90625 
L 47.609375 72.90625 
L 47.609375 25.390625 
L 58.015625 25.390625 
L 58.015625 17.1875 
L 47.609375 17.1875 
L 47.609375 0 
L 37.796875 0 
L 37.796875 17.1875 
L 4.890625 17.1875 
L 4.890625 26.703125 
z
" id="DejaVuSans-52"/>
      </defs>
      <use xlink:href="#DejaVuSans-52"/>
      <use x="63.623047" xlink:href="#DejaVuSans-46"/>
      <use x="95.410156" xlink:href="#DejaVuSans-53"/>
      <use x="159.033203" xlink:href="#DejaVuSans-32"/>
      <use x="190.820312" xlink:href="#DejaVuSans-40"/>
      <use x="229.833984" xlink:href="#DejaVuSans-49"/>
      <use x="293.457031" xlink:href="#DejaVuSans-48"/>
      <use x="357.080078" xlink:href="#DejaVuSans-46"/>
      <use x="388.867188" xlink:href="#DejaVuSans-48"/>
      <use x="452.490234" xlink:href="#DejaVuSans-37"/>
      <use x="547.509766" xlink:href="#DejaVuSans-41"/>
     </g>
    </g>
    <g id="patch_28">
     <path d="M 28.988437 305.989063 
L 48.988437 305.989063 
L 48.988437 298.989063 
L 28.988437 298.989063 
z
" style="fill:#8c564b;"/>
    </g>
    <g id="text_17">
     <!-- 5.5 (9.2%) -->
     <g transform="translate(56.988437 305.989063)scale(0.1 -0.1)">
      <use xlink:href="#DejaVuSans-53"/>
      <use x="63.623047" xlink:href="#DejaVuSans-46"/>
      <use x="95.410156" xlink:href="#DejaVuSans-53"/>
      <use x="159.033203" xlink:href="#DejaVuSans-32"/>
      <use x="190.820312" xlink:href="#DejaVuSans-40"/>
      <use x="229.833984" xlink:href="#DejaVuSans-57"/>
      <use x="293.457031" xlink:href="#DejaVuSans-46"/>
      <use x="325.244141" xlink:href="#DejaVuSans-50"/>
      <use x="388.867188" xlink:href="#DejaVuSans-37"/>
      <use x="483.886719" xlink:href="#DejaVuSans-41"/>
     </g>
    </g>
    <g id="patch_29">
     <path d="M 28.988437 320.667188 
L 48.988437 320.667188 
L 48.988437 313.667188 
L 28.988437 313.667188 
z
" style="fill:#e377c2;"/>
    </g>
    <g id="text_18">
     <!-- 6.5 (10.5%) -->
     <g transform="translate(56.988437 320.667188)scale(0.1 -0.1)">
      <defs>
       <path d="M 33.015625 40.375 
Q 26.375 40.375 22.484375 35.828125 
Q 18.609375 31.296875 18.609375 23.390625 
Q 18.609375 15.53125 22.484375 10.953125 
Q 26.375 6.390625 33.015625 6.390625 
Q 39.65625 6.390625 43.53125 10.953125 
Q 47.40625 15.53125 47.40625 23.390625 
Q 47.40625 31.296875 43.53125 35.828125 
Q 39.65625 40.375 33.015625 40.375 
z
M 52.59375 71.296875 
L 52.59375 62.3125 
Q 48.875 64.0625 45.09375 64.984375 
Q 41.3125 65.921875 37.59375 65.921875 
Q 27.828125 65.921875 22.671875 59.328125 
Q 17.53125 52.734375 16.796875 39.40625 
Q 19.671875 43.65625 24.015625 45.921875 
Q 28.375 48.1875 33.59375 48.1875 
Q 44.578125 48.1875 50.953125 41.515625 
Q 57.328125 34.859375 57.328125 23.390625 
Q 57.328125 12.15625 50.6875 5.359375 
Q 44.046875 -1.421875 33.015625 -1.421875 
Q 20.359375 -1.421875 13.671875 8.265625 
Q 6.984375 17.96875 6.984375 36.375 
Q 6.984375 53.65625 15.1875 63.9375 
Q 23.390625 74.21875 37.203125 74.21875 
Q 40.921875 74.21875 44.703125 73.484375 
Q 48.484375 72.75 52.59375 71.296875 
z
" id="DejaVuSans-54"/>
      </defs>
      <use xlink:href="#DejaVuSans-54"/>
      <use x="63.623047" xlink:href="#DejaVuSans-46"/>
      <use x="95.410156" xlink:href="#DejaVuSans-53"/>
      <use x="159.033203" xlink:href="#DejaVuSans-32"/>
      <use x="190.820312" xlink:href="#DejaVuSans-40"/>
      <use x="229.833984" xlink:href="#DejaVuSans-49"/>
      <use x="293.457031" xlink:href="#DejaVuSans-48"/>
      <use x="357.080078" xlink:href="#DejaVuSans-46"/>
      <use x="388.867188" xlink:href="#DejaVuSans-53"/>
      <use x="452.490234" xlink:href="#DejaVuSans-37"/>
      <use x="547.509766" xlink:href="#DejaVuSans-41"/>
     </g>
    </g>
    <g id="patch_30">
     <path d="M 28.988437 335.345313 
L 48.988437 335.345313 
L 48.988437 328.345313 
L 28.988437 328.345313 
z
" style="fill:#7f7f7f;"/>
    </g>
    <g id="text_19">
     <!-- 7.5 (10.8%) -->
     <g transform="translate(56.988437 335.345313)scale(0.1 -0.1)">
      <use xlink:href="#DejaVuSans-55"/>
      <use x="63.623047" xlink:href="#DejaVuSans-46"/>
      <use x="95.410156" xlink:href="#DejaVuSans-53"/>
      <use x="159.033203" xlink:href="#DejaVuSans-32"/>
      <use x="190.820312" xlink:href="#DejaVuSans-40"/>
      <use x="229.833984" xlink:href="#DejaVuSans-49"/>
      <use x="293.457031" xlink:href="#DejaVuSans-48"/>
      <use x="357.080078" xlink:href="#DejaVuSans-46"/>
      <use x="388.867188" xlink:href="#DejaVuSans-56"/>
      <use x="452.490234" xlink:href="#DejaVuSans-37"/>
      <use x="547.509766" xlink:href="#DejaVuSans-41"/>
     </g>
    </g>
    <g id="patch_31">
     <path d="M 28.988437 350.023438 
L 48.988437 350.023438 
L 48.988437 343.023438 
L 28.988437 343.023438 
z
" style="fill:#bcbd22;"/>
    </g>
    <g id="text_20">
     <!-- 8.5 (12.8%) -->
     <g transform="translate(56.988437 350.023438)scale(0.1 -0.1)">
      <use xlink:href="#DejaVuSans-56"/>
      <use x="63.623047" xlink:href="#DejaVuSans-46"/>
      <use x="95.410156" xlink:href="#DejaVuSans-53"/>
      <use x="159.033203" xlink:href="#DejaVuSans-32"/>
      <use x="190.820312" xlink:href="#DejaVuSans-40"/>
      <use x="229.833984" xlink:href="#DejaVuSans-49"/>
      <use x="293.457031" xlink:href="#DejaVuSans-50"/>
      <use x="357.080078" xlink:href="#DejaVuSans-46"/>
      <use x="388.867188" xlink:href="#DejaVuSans-56"/>
      <use x="452.490234" xlink:href="#DejaVuSans-37"/>
      <use x="547.509766" xlink:href="#DejaVuSans-41"/>
     </g>
    </g>
    <g id="patch_32">
     <path d="M 28.988437 364.701563 
L 48.988437 364.701563 
L 48.988437 357.701563 
L 28.988437 357.701563 
z
" style="fill:#17becf;"/>
    </g>
    <g id="text_21">
     <!-- 9.5 (8.2%) -->
     <g transform="translate(56.988437 364.701563)scale(0.1 -0.1)">
      <use xlink:href="#DejaVuSans-57"/>
      <use x="63.623047" xlink:href="#DejaVuSans-46"/>
      <use x="95.410156" xlink:href="#DejaVuSans-53"/>
      <use x="159.033203" xlink:href="#DejaVuSans-32"/>
      <use x="190.820312" xlink:href="#DejaVuSans-40"/>
      <use x="229.833984" xlink:href="#DejaVuSans-56"/>
      <use x="293.457031" xlink:href="#DejaVuSans-46"/>
      <use x="325.244141" xlink:href="#DejaVuSans-50"/>
      <use x="388.867188" xlink:href="#DejaVuSans-37"/>
      <use x="483.886719" xlink:href="#DejaVuSans-41"/>
     </g>
    </g>
   </g>
  </g>
  <g id="axes_2">
   <g id="patch_33">
    <path d="M 324.928477 536.718209 
C 310.683056 536.718209 296.507851 538.717223 282.817985 542.65671 
C 269.128119 546.596197 256.058545 552.437322 243.992008 560.009025 
L 324.928477 688.992265 
L 324.928477 536.718209 
z
" style="fill:#092436;opacity:0.5;stroke:#092436;stroke-linejoin:miter;"/>
   </g>
   <g id="patch_34">
    <path d="M 243.992008 560.009025 
C 227.146219 570.579691 212.533316 584.348891 200.980666 600.537031 
C 189.428016 616.725171 181.157845 635.020855 176.638399 654.388205 
L 324.928477 688.992265 
L 243.992008 560.009025 
z
" style="fill:#4c2604;opacity:0.5;stroke:#4c2604;stroke-linejoin:miter;"/>
   </g>
   <g id="patch_35">
    <path d="M 176.638399 654.388205 
C 172.711465 671.216446 171.677579 688.591017 173.581118 705.766204 
C 175.484657 722.941391 180.297991 739.66791 187.814533 755.227863 
L 324.928477 688.992265 
L 176.638399 654.388205 
z
" style="fill:#0d300d;opacity:0.5;stroke:#0d300d;stroke-linejoin:miter;"/>
   </g>
   <g id="patch_36">
    <path d="M 187.814533 755.227863 
C 195.142299 770.397029 204.936816 784.245554 216.798311 796.208192 
C 228.659805 808.17083 242.424668 818.082579 257.53107 825.538877 
L 324.928477 688.992265 
L 187.814533 755.227863 
z
" style="fill:#400c0c;opacity:0.5;stroke:#400c0c;stroke-linejoin:miter;"/>
   </g>
   <g id="patch_37">
    <path d="M 257.53107 825.538877 
C 272.637471 832.995176 288.877046 837.893178 305.586955 840.032966 
C 322.296864 842.172754 339.246626 841.524813 355.744412 838.11559 
L 324.928477 688.992265 
L 257.53107 825.538877 
z
" style="fill:#2c1f39;opacity:0.5;stroke:#2c1f39;stroke-linejoin:miter;"/>
   </g>
   <g id="patch_38">
    <path d="M 355.744412 838.11559 
C 378.634909 833.38533 400.131861 823.447421 418.5645 809.074249 
C 436.997138 794.701078 451.875226 776.274914 462.04242 755.227863 
L 324.928477 688.992265 
L 355.744412 838.11559 
z
" style="fill:#2a1a16;opacity:0.5;stroke:#2a1a16;stroke-linejoin:miter;"/>
   </g>
   <g id="patch_39">
    <path d="M 462.04242 755.227863 
C 469.936718 738.88592 474.846237 721.263493 476.538847 703.193792 
C 478.231458 685.124091 476.680058 666.896462 471.957999 649.37273 
L 324.928477 688.992265 
L 462.04242 755.227863 
z
" style="fill:#44243a;opacity:0.5;stroke:#44243a;stroke-linejoin:miter;"/>
   </g>
   <g id="patch_40">
    <path d="M 471.957999 649.37273 
C 467.461898 632.687539 460.158226 616.888773 450.360453 602.654513 
C 440.56268 588.420253 428.413014 575.957097 414.432916 565.799963 
L 324.928477 688.992265 
L 471.957999 649.37273 
z
" style="fill:#262626;opacity:0.5;stroke:#262626;stroke-linejoin:miter;"/>
   </g>
   <g id="patch_41">
    <path d="M 414.432916 565.799963 
C 401.50578 556.407849 387.180501 549.108756 371.983741 544.17103 
C 356.786982 539.233304 340.907288 536.718208 324.928469 536.718209 
L 324.928477 688.992265 
L 414.432916 565.799963 
z
" style="fill:#38390a;opacity:0.5;stroke:#38390a;stroke-linejoin:miter;"/>
   </g>
   <g id="patch_42">
    <path d="M 327.973958 533.672728 
C 313.728537 533.672728 299.553332 535.671742 285.863466 539.611229 
C 272.1736 543.550716 259.104026 549.39184 247.037489 556.963544 
L 327.973958 685.946783 
L 327.973958 533.672728 
z
" style="fill:#1f77b4;"/>
   </g>
   <g id="patch_43">
    <path d="M 247.037489 556.963544 
C 230.1917 567.53421 215.578798 581.30341 204.026147 597.49155 
C 192.473497 613.67969 184.203326 631.975374 179.683881 651.342723 
L 327.973958 685.946783 
L 247.037489 556.963544 
z
" style="fill:#ff7f0e;"/>
   </g>
   <g id="patch_44">
    <path d="M 179.683881 651.342723 
C 175.756946 668.170965 174.723061 685.545535 176.626599 702.720723 
C 178.530138 719.89591 183.343472 736.622429 190.860014 752.182382 
L 327.973958 685.946783 
L 179.683881 651.342723 
z
" style="fill:#2ca02c;"/>
   </g>
   <g id="patch_45">
    <path d="M 190.860014 752.182382 
C 198.18778 767.351548 207.982298 781.200073 219.843792 793.162711 
C 231.705286 805.125349 245.470149 815.037098 260.576551 822.493396 
L 327.973958 685.946783 
L 190.860014 752.182382 
z
" style="fill:#d62728;"/>
   </g>
   <g id="patch_46">
    <path d="M 260.576551 822.493396 
C 275.682952 829.949695 291.922528 834.847697 308.632436 836.987485 
C 325.342345 839.127273 342.292107 838.479332 358.789893 835.070108 
L 327.973958 685.946783 
L 260.576551 822.493396 
z
" style="fill:#9467bd;"/>
   </g>
   <g id="patch_47">
    <path d="M 358.789893 835.070108 
C 381.68039 830.339849 403.177342 820.40194 421.609981 806.028768 
C 440.042619 791.655597 454.920707 773.229433 465.087901 752.182382 
L 327.973958 685.946783 
L 358.789893 835.070108 
z
" style="fill:#8c564b;"/>
   </g>
   <g id="patch_48">
    <path d="M 465.087901 752.182382 
C 472.982199 735.840439 477.891718 718.218012 479.584329 700.148311 
C 481.276939 682.07861 479.725539 663.850981 475.00348 646.327249 
L 327.973958 685.946783 
L 465.087901 752.182382 
z
" style="fill:#e377c2;"/>
   </g>
   <g id="patch_49">
    <path d="M 475.00348 646.327249 
C 470.50738 629.642058 463.203707 613.843292 453.405934 599.609032 
C 443.608161 585.374772 431.458495 572.911616 417.478397 562.754481 
L 327.973958 685.946783 
L 475.00348 646.327249 
z
" style="fill:#7f7f7f;"/>
   </g>
   <g id="patch_50">
    <path d="M 417.478397 562.754481 
C 404.551261 553.362368 390.225982 546.063275 375.029223 541.125549 
C 359.832463 536.187823 343.952769 533.672727 327.973951 533.672728 
L 327.973958 685.946783 
L 417.478397 562.754481 
z
" style="fill:#bcbd22;"/>
   </g>
   <g id="matplotlib.axis_3"/>
   <g id="matplotlib.axis_4"/>
   <g id="text_22">
    <!-- 8.9% -->
    <g transform="translate(290.005319 600.904826)scale(0.1 -0.1)">
     <use xlink:href="#DejaVuSans-56"/>
     <use x="63.623047" xlink:href="#DejaVuSans-46"/>
     <use x="95.410156" xlink:href="#DejaVuSans-57"/>
     <use x="159.033203" xlink:href="#DejaVuSans-37"/>
    </g>
   </g>
   <g id="text_23">
    <!-- 12.4% -->
    <g transform="translate(237.721678 635.633018)scale(0.1 -0.1)">
     <use xlink:href="#DejaVuSans-49"/>
     <use x="63.623047" xlink:href="#DejaVuSans-50"/>
     <use x="127.246094" xlink:href="#DejaVuSans-46"/>
     <use x="159.033203" xlink:href="#DejaVuSans-52"/>
     <use x="222.65625" xlink:href="#DejaVuSans-37"/>
    </g>
   </g>
   <g id="text_24">
    <!-- 10.8% -->
    <g transform="translate(221.281949 698.770522)scale(0.1 -0.1)">
     <use xlink:href="#DejaVuSans-49"/>
     <use x="63.623047" xlink:href="#DejaVuSans-48"/>
     <use x="127.246094" xlink:href="#DejaVuSans-46"/>
     <use x="159.033203" xlink:href="#DejaVuSans-56"/>
     <use x="222.65625" xlink:href="#DejaVuSans-37"/>
    </g>
   </g>
   <g id="text_25">
    <!-- 10.5% -->
    <g transform="translate(247.212264 753.035715)scale(0.1 -0.1)">
     <use xlink:href="#DejaVuSans-49"/>
     <use x="63.623047" xlink:href="#DejaVuSans-48"/>
     <use x="127.246094" xlink:href="#DejaVuSans-46"/>
     <use x="159.033203" xlink:href="#DejaVuSans-53"/>
     <use x="222.65625" xlink:href="#DejaVuSans-37"/>
    </g>
   </g>
   <g id="text_26">
    <!-- 10.5% -->
    <g transform="translate(300.485451 779.330579)scale(0.1 -0.1)">
     <use xlink:href="#DejaVuSans-49"/>
     <use x="63.623047" xlink:href="#DejaVuSans-48"/>
     <use x="127.246094" xlink:href="#DejaVuSans-46"/>
     <use x="159.033203" xlink:href="#DejaVuSans-53"/>
     <use x="222.65625" xlink:href="#DejaVuSans-37"/>
    </g>
   </g>
   <g id="text_27">
    <!-- 14.6% -->
    <g transform="translate(368.271978 760.755349)scale(0.1 -0.1)">
     <use xlink:href="#DejaVuSans-49"/>
     <use x="63.623047" xlink:href="#DejaVuSans-52"/>
     <use x="127.246094" xlink:href="#DejaVuSans-46"/>
     <use x="159.033203" xlink:href="#DejaVuSans-54"/>
     <use x="222.65625" xlink:href="#DejaVuSans-37"/>
    </g>
   </g>
   <g id="text_28">
    <!-- 11.4% -->
    <g transform="translate(403.056586 697.227075)scale(0.1 -0.1)">
     <use xlink:href="#DejaVuSans-49"/>
     <use x="63.623047" xlink:href="#DejaVuSans-49"/>
     <use x="127.246094" xlink:href="#DejaVuSans-46"/>
     <use x="159.033203" xlink:href="#DejaVuSans-52"/>
     <use x="222.65625" xlink:href="#DejaVuSans-37"/>
    </g>
   </g>
   <g id="text_29">
    <!-- 10.8% -->
    <g transform="translate(387.34955 636.903508)scale(0.1 -0.1)">
     <use xlink:href="#DejaVuSans-49"/>
     <use x="63.623047" xlink:href="#DejaVuSans-48"/>
     <use x="127.246094" xlink:href="#DejaVuSans-46"/>
     <use x="159.033203" xlink:href="#DejaVuSans-56"/>
     <use x="222.65625" xlink:href="#DejaVuSans-37"/>
    </g>
   </g>
   <g id="text_30">
    <!-- 10.0% -->
    <g transform="translate(340.323523 601.813418)scale(0.1 -0.1)">
     <use xlink:href="#DejaVuSans-49"/>
     <use x="63.623047" xlink:href="#DejaVuSans-48"/>
     <use x="127.246094" xlink:href="#DejaVuSans-46"/>
     <use x="159.033203" xlink:href="#DejaVuSans-48"/>
     <use x="222.65625" xlink:href="#DejaVuSans-37"/>
    </g>
   </g>
   <g id="text_31">
    <!-- Dataset B (filtered) -->
    <g transform="translate(270.569687 512.4)scale(0.12 -0.12)">
     <defs>
      <path d="M 19.671875 34.8125 
L 19.671875 8.109375 
L 35.5 8.109375 
Q 43.453125 8.109375 47.28125 11.40625 
Q 51.125 14.703125 51.125 21.484375 
Q 51.125 28.328125 47.28125 31.5625 
Q 43.453125 34.8125 35.5 34.8125 
z
M 19.671875 64.796875 
L 19.671875 42.828125 
L 34.28125 42.828125 
Q 41.5 42.828125 45.03125 45.53125 
Q 48.578125 48.25 48.578125 53.8125 
Q 48.578125 59.328125 45.03125 62.0625 
Q 41.5 64.796875 34.28125 64.796875 
z
M 9.8125 72.90625 
L 35.015625 72.90625 
Q 46.296875 72.90625 52.390625 68.21875 
Q 58.5 63.53125 58.5 54.890625 
Q 58.5 48.1875 55.375 44.234375 
Q 52.25 40.28125 46.1875 39.3125 
Q 53.46875 37.75 57.5 32.78125 
Q 61.53125 27.828125 61.53125 20.40625 
Q 61.53125 10.640625 54.890625 5.3125 
Q 48.25 0 35.984375 0 
L 9.8125 0 
z
" id="DejaVuSans-66"/>
      <path d="M 37.109375 75.984375 
L 37.109375 68.5 
L 28.515625 68.5 
Q 23.6875 68.5 21.796875 66.546875 
Q 19.921875 64.59375 19.921875 59.515625 
L 19.921875 54.6875 
L 34.71875 54.6875 
L 34.71875 47.703125 
L 19.921875 47.703125 
L 19.921875 0 
L 10.890625 0 
L 10.890625 47.703125 
L 2.296875 47.703125 
L 2.296875 54.6875 
L 10.890625 54.6875 
L 10.890625 58.5 
Q 10.890625 67.625 15.140625 71.796875 
Q 19.390625 75.984375 28.609375 75.984375 
z
" id="DejaVuSans-102"/>
      <path d="M 9.421875 54.6875 
L 18.40625 54.6875 
L 18.40625 0 
L 9.421875 0 
z
M 9.421875 75.984375 
L 18.40625 75.984375 
L 18.40625 64.59375 
L 9.421875 64.59375 
z
" id="DejaVuSans-105"/>
      <path d="M 9.421875 75.984375 
L 18.40625 75.984375 
L 18.40625 0 
L 9.421875 0 
z
" id="DejaVuSans-108"/>
      <path d="M 41.109375 46.296875 
Q 39.59375 47.171875 37.8125 47.578125 
Q 36.03125 48 33.890625 48 
Q 26.265625 48 22.1875 43.046875 
Q 18.109375 38.09375 18.109375 28.8125 
L 18.109375 0 
L 9.078125 0 
L 9.078125 54.6875 
L 18.109375 54.6875 
L 18.109375 46.1875 
Q 20.953125 51.171875 25.484375 53.578125 
Q 30.03125 56 36.53125 56 
Q 37.453125 56 38.578125 55.875 
Q 39.703125 55.765625 41.0625 55.515625 
z
" id="DejaVuSans-114"/>
      <path d="M 45.40625 46.390625 
L 45.40625 75.984375 
L 54.390625 75.984375 
L 54.390625 0 
L 45.40625 0 
L 45.40625 8.203125 
Q 42.578125 3.328125 38.25 0.953125 
Q 33.9375 -1.421875 27.875 -1.421875 
Q 17.96875 -1.421875 11.734375 6.484375 
Q 5.515625 14.40625 5.515625 27.296875 
Q 5.515625 40.1875 11.734375 48.09375 
Q 17.96875 56 27.875 56 
Q 33.9375 56 38.25 53.625 
Q 42.578125 51.265625 45.40625 46.390625 
z
M 14.796875 27.296875 
Q 14.796875 17.390625 18.875 11.75 
Q 22.953125 6.109375 30.078125 6.109375 
Q 37.203125 6.109375 41.296875 11.75 
Q 45.40625 17.390625 45.40625 27.296875 
Q 45.40625 37.203125 41.296875 42.84375 
Q 37.203125 48.484375 30.078125 48.484375 
Q 22.953125 48.484375 18.875 42.84375 
Q 14.796875 37.203125 14.796875 27.296875 
z
" id="DejaVuSans-100"/>
     </defs>
     <use xlink:href="#DejaVuSans-68"/>
     <use x="77.001953" xlink:href="#DejaVuSans-97"/>
     <use x="138.28125" xlink:href="#DejaVuSans-116"/>
     <use x="177.490234" xlink:href="#DejaVuSans-97"/>
     <use x="238.769531" xlink:href="#DejaVuSans-115"/>
     <use x="290.869141" xlink:href="#DejaVuSans-101"/>
     <use x="352.392578" xlink:href="#DejaVuSans-116"/>
     <use x="391.601562" xlink:href="#DejaVuSans-32"/>
     <use x="423.388672" xlink:href="#DejaVuSans-66"/>
     <use x="491.992188" xlink:href="#DejaVuSans-32"/>
     <use x="523.779297" xlink:href="#DejaVuSans-40"/>
     <use x="562.792969" xlink:href="#DejaVuSans-102"/>
     <use x="597.998047" xlink:href="#DejaVuSans-105"/>
     <use x="625.78125" xlink:href="#DejaVuSans-108"/>
     <use x="653.564453" xlink:href="#DejaVuSans-116"/>
     <use x="692.773438" xlink:href="#DejaVuSans-101"/>
     <use x="754.296875" xlink:href="#DejaVuSans-114"/>
     <use x="793.160156" xlink:href="#DejaVuSans-101"/>
     <use x="854.683594" xlink:href="#DejaVuSans-100"/>
     <use x="918.160156" xlink:href="#DejaVuSans-41"/>
    </g>
   </g>
   <g id="legend_2">
    <g id="patch_51">
     <path d="M 26.988437 759.303125 
L 117.64 759.303125 
Q 119.64 759.303125 119.64 757.303125 
L 119.64 626.2 
Q 119.64 624.2 117.64 624.2 
L 26.988437 624.2 
Q 24.988437 624.2 24.988437 626.2 
L 24.988437 757.303125 
Q 24.988437 759.303125 26.988437 759.303125 
z
" style="fill:#ffffff;opacity:0.8;stroke:#cccccc;stroke-linejoin:miter;"/>
    </g>
    <g id="patch_52">
     <path d="M 28.988437 635.798438 
L 48.988437 635.798438 
L 48.988437 628.798438 
L 28.988437 628.798438 
z
" style="fill:#1f77b4;"/>
    </g>
    <g id="text_32">
     <!-- 1.5 (8.9%) -->
     <g transform="translate(56.988437 635.798438)scale(0.1 -0.1)">
      <use xlink:href="#DejaVuSans-49"/>
      <use x="63.623047" xlink:href="#DejaVuSans-46"/>
      <use x="95.410156" xlink:href="#DejaVuSans-53"/>
      <use x="159.033203" xlink:href="#DejaVuSans-32"/>
      <use x="190.820312" xlink:href="#DejaVuSans-40"/>
      <use x="229.833984" xlink:href="#DejaVuSans-56"/>
      <use x="293.457031" xlink:href="#DejaVuSans-46"/>
      <use x="325.244141" xlink:href="#DejaVuSans-57"/>
      <use x="388.867188" xlink:href="#DejaVuSans-37"/>
      <use x="483.886719" xlink:href="#DejaVuSans-41"/>
     </g>
    </g>
    <g id="patch_53">
     <path d="M 28.988437 650.476562 
L 48.988437 650.476562 
L 48.988437 643.476562 
L 28.988437 643.476562 
z
" style="fill:#ff7f0e;"/>
    </g>
    <g id="text_33">
     <!-- 2.5 (12.4%) -->
     <g transform="translate(56.988437 650.476562)scale(0.1 -0.1)">
      <use xlink:href="#DejaVuSans-50"/>
      <use x="63.623047" xlink:href="#DejaVuSans-46"/>
      <use x="95.410156" xlink:href="#DejaVuSans-53"/>
      <use x="159.033203" xlink:href="#DejaVuSans-32"/>
      <use x="190.820312" xlink:href="#DejaVuSans-40"/>
      <use x="229.833984" xlink:href="#DejaVuSans-49"/>
      <use x="293.457031" xlink:href="#DejaVuSans-50"/>
      <use x="357.080078" xlink:href="#DejaVuSans-46"/>
      <use x="388.867188" xlink:href="#DejaVuSans-52"/>
      <use x="452.490234" xlink:href="#DejaVuSans-37"/>
      <use x="547.509766" xlink:href="#DejaVuSans-41"/>
     </g>
    </g>
    <g id="patch_54">
     <path d="M 28.988437 665.154688 
L 48.988437 665.154688 
L 48.988437 658.154688 
L 28.988437 658.154688 
z
" style="fill:#2ca02c;"/>
    </g>
    <g id="text_34">
     <!-- 3.5 (10.8%) -->
     <g transform="translate(56.988437 665.154688)scale(0.1 -0.1)">
      <use xlink:href="#DejaVuSans-51"/>
      <use x="63.623047" xlink:href="#DejaVuSans-46"/>
      <use x="95.410156" xlink:href="#DejaVuSans-53"/>
      <use x="159.033203" xlink:href="#DejaVuSans-32"/>
      <use x="190.820312" xlink:href="#DejaVuSans-40"/>
      <use x="229.833984" xlink:href="#DejaVuSans-49"/>
      <use x="293.457031" xlink:href="#DejaVuSans-48"/>
      <use x="357.080078" xlink:href="#DejaVuSans-46"/>
      <use x="388.867188" xlink:href="#DejaVuSans-56"/>
      <use x="452.490234" xlink:href="#DejaVuSans-37"/>
      <use x="547.509766" xlink:href="#DejaVuSans-41"/>
     </g>
    </g>
    <g id="patch_55">
     <path d="M 28.988437 679.832813 
L 48.988437 679.832813 
L 48.988437 672.832813 
L 28.988437 672.832813 
z
" style="fill:#d62728;"/>
    </g>
    <g id="text_35">
     <!-- 4.5 (10.5%) -->
     <g transform="translate(56.988437 679.832813)scale(0.1 -0.1)">
      <use xlink:href="#DejaVuSans-52"/>
      <use x="63.623047" xlink:href="#DejaVuSans-46"/>
      <use x="95.410156" xlink:href="#DejaVuSans-53"/>
      <use x="159.033203" xlink:href="#DejaVuSans-32"/>
      <use x="190.820312" xlink:href="#DejaVuSans-40"/>
      <use x="229.833984" xlink:href="#DejaVuSans-49"/>
      <use x="293.457031" xlink:href="#DejaVuSans-48"/>
      <use x="357.080078" xlink:href="#DejaVuSans-46"/>
      <use x="388.867188" xlink:href="#DejaVuSans-53"/>
      <use x="452.490234" xlink:href="#DejaVuSans-37"/>
      <use x="547.509766" xlink:href="#DejaVuSans-41"/>
     </g>
    </g>
    <g id="patch_56">
     <path d="M 28.988437 694.510938 
L 48.988437 694.510938 
L 48.988437 687.510938 
L 28.988437 687.510938 
z
" style="fill:#9467bd;"/>
    </g>
    <g id="text_36">
     <!-- 5.5 (10.5%) -->
     <g transform="translate(56.988437 694.510938)scale(0.1 -0.1)">
      <use xlink:href="#DejaVuSans-53"/>
      <use x="63.623047" xlink:href="#DejaVuSans-46"/>
      <use x="95.410156" xlink:href="#DejaVuSans-53"/>
      <use x="159.033203" xlink:href="#DejaVuSans-32"/>
      <use x="190.820312" xlink:href="#DejaVuSans-40"/>
      <use x="229.833984" xlink:href="#DejaVuSans-49"/>
      <use x="293.457031" xlink:href="#DejaVuSans-48"/>
      <use x="357.080078" xlink:href="#DejaVuSans-46"/>
      <use x="388.867188" xlink:href="#DejaVuSans-53"/>
      <use x="452.490234" xlink:href="#DejaVuSans-37"/>
      <use x="547.509766" xlink:href="#DejaVuSans-41"/>
     </g>
    </g>
    <g id="patch_57">
     <path d="M 28.988437 709.189063 
L 48.988437 709.189063 
L 48.988437 702.189063 
L 28.988437 702.189063 
z
" style="fill:#8c564b;"/>
    </g>
    <g id="text_37">
     <!-- 6.5 (14.6%) -->
     <g transform="translate(56.988437 709.189063)scale(0.1 -0.1)">
      <use xlink:href="#DejaVuSans-54"/>
      <use x="63.623047" xlink:href="#DejaVuSans-46"/>
      <use x="95.410156" xlink:href="#DejaVuSans-53"/>
      <use x="159.033203" xlink:href="#DejaVuSans-32"/>
      <use x="190.820312" xlink:href="#DejaVuSans-40"/>
      <use x="229.833984" xlink:href="#DejaVuSans-49"/>
      <use x="293.457031" xlink:href="#DejaVuSans-52"/>
      <use x="357.080078" xlink:href="#DejaVuSans-46"/>
      <use x="388.867188" xlink:href="#DejaVuSans-54"/>
      <use x="452.490234" xlink:href="#DejaVuSans-37"/>
      <use x="547.509766" xlink:href="#DejaVuSans-41"/>
     </g>
    </g>
    <g id="patch_58">
     <path d="M 28.988437 723.867188 
L 48.988437 723.867188 
L 48.988437 716.867188 
L 28.988437 716.867188 
z
" style="fill:#e377c2;"/>
    </g>
    <g id="text_38">
     <!-- 7.5 (11.4%) -->
     <g transform="translate(56.988437 723.867188)scale(0.1 -0.1)">
      <use xlink:href="#DejaVuSans-55"/>
      <use x="63.623047" xlink:href="#DejaVuSans-46"/>
      <use x="95.410156" xlink:href="#DejaVuSans-53"/>
      <use x="159.033203" xlink:href="#DejaVuSans-32"/>
      <use x="190.820312" xlink:href="#DejaVuSans-40"/>
      <use x="229.833984" xlink:href="#DejaVuSans-49"/>
      <use x="293.457031" xlink:href="#DejaVuSans-49"/>
      <use x="357.080078" xlink:href="#DejaVuSans-46"/>
      <use x="388.867188" xlink:href="#DejaVuSans-52"/>
      <use x="452.490234" xlink:href="#DejaVuSans-37"/>
      <use x="547.509766" xlink:href="#DejaVuSans-41"/>
     </g>
    </g>
    <g id="patch_59">
     <path d="M 28.988437 738.545313 
L 48.988437 738.545313 
L 48.988437 731.545313 
L 28.988437 731.545313 
z
" style="fill:#7f7f7f;"/>
    </g>
    <g id="text_39">
     <!-- 8.5 (10.8%) -->
     <g transform="translate(56.988437 738.545313)scale(0.1 -0.1)">
      <use xlink:href="#DejaVuSans-56"/>
      <use x="63.623047" xlink:href="#DejaVuSans-46"/>
      <use x="95.410156" xlink:href="#DejaVuSans-53"/>
      <use x="159.033203" xlink:href="#DejaVuSans-32"/>
      <use x="190.820312" xlink:href="#DejaVuSans-40"/>
      <use x="229.833984" xlink:href="#DejaVuSans-49"/>
      <use x="293.457031" xlink:href="#DejaVuSans-48"/>
      <use x="357.080078" xlink:href="#DejaVuSans-46"/>
      <use x="388.867188" xlink:href="#DejaVuSans-56"/>
      <use x="452.490234" xlink:href="#DejaVuSans-37"/>
      <use x="547.509766" xlink:href="#DejaVuSans-41"/>
     </g>
    </g>
    <g id="patch_60">
     <path d="M 28.988437 753.223438 
L 48.988437 753.223438 
L 48.988437 746.223438 
L 28.988437 746.223438 
z
" style="fill:#bcbd22;"/>
    </g>
    <g id="text_40">
     <!-- 9.5 (10.0%) -->
     <g transform="translate(56.988437 753.223438)scale(0.1 -0.1)">
      <use xlink:href="#DejaVuSans-57"/>
      <use x="63.623047" xlink:href="#DejaVuSans-46"/>
      <use x="95.410156" xlink:href="#DejaVuSans-53"/>
      <use x="159.033203" xlink:href="#DejaVuSans-32"/>
      <use x="190.820312" xlink:href="#DejaVuSans-40"/>
      <use x="229.833984" xlink:href="#DejaVuSans-49"/>
      <use x="293.457031" xlink:href="#DejaVuSans-48"/>
      <use x="357.080078" xlink:href="#DejaVuSans-46"/>
      <use x="388.867188" xlink:href="#DejaVuSans-48"/>
      <use x="452.490234" xlink:href="#DejaVuSans-37"/>
      <use x="547.509766" xlink:href="#DejaVuSans-41"/>
     </g>
    </g>
   </g>
  </g>
  <g id="text_41">
   <!-- Sample 8 - Pie Diagramm -->
   <g transform="translate(243.445625 28.318125)scale(0.12 -0.12)">
    <defs>
     <path d="M 53.515625 70.515625 
L 53.515625 60.890625 
Q 47.90625 63.578125 42.921875 64.890625 
Q 37.9375 66.21875 33.296875 66.21875 
Q 25.25 66.21875 20.875 63.09375 
Q 16.5 59.96875 16.5 54.203125 
Q 16.5 49.359375 19.40625 46.890625 
Q 22.3125 44.4375 30.421875 42.921875 
L 36.375 41.703125 
Q 47.40625 39.59375 52.65625 34.296875 
Q 57.90625 29 57.90625 20.125 
Q 57.90625 9.515625 50.796875 4.046875 
Q 43.703125 -1.421875 29.984375 -1.421875 
Q 24.8125 -1.421875 18.96875 -0.25 
Q 13.140625 0.921875 6.890625 3.21875 
L 6.890625 13.375 
Q 12.890625 10.015625 18.65625 8.296875 
Q 24.421875 6.59375 29.984375 6.59375 
Q 38.421875 6.59375 43.015625 9.90625 
Q 47.609375 13.234375 47.609375 19.390625 
Q 47.609375 24.75 44.3125 27.78125 
Q 41.015625 30.8125 33.5 32.328125 
L 27.484375 33.5 
Q 16.453125 35.6875 11.515625 40.375 
Q 6.59375 45.0625 6.59375 53.421875 
Q 6.59375 63.09375 13.40625 68.65625 
Q 20.21875 74.21875 32.171875 74.21875 
Q 37.3125 74.21875 42.625 73.28125 
Q 47.953125 72.359375 53.515625 70.515625 
z
" id="DejaVuSans-83"/>
     <path d="M 52 44.1875 
Q 55.375 50.25 60.0625 53.125 
Q 64.75 56 71.09375 56 
Q 79.640625 56 84.28125 50.015625 
Q 88.921875 44.046875 88.921875 33.015625 
L 88.921875 0 
L 79.890625 0 
L 79.890625 32.71875 
Q 79.890625 40.578125 77.09375 44.375 
Q 74.3125 48.1875 68.609375 48.1875 
Q 61.625 48.1875 57.5625 43.546875 
Q 53.515625 38.921875 53.515625 30.90625 
L 53.515625 0 
L 44.484375 0 
L 44.484375 32.71875 
Q 44.484375 40.625 41.703125 44.40625 
Q 38.921875 48.1875 33.109375 48.1875 
Q 26.21875 48.1875 22.15625 43.53125 
Q 18.109375 38.875 18.109375 30.90625 
L 18.109375 0 
L 9.078125 0 
L 9.078125 54.6875 
L 18.109375 54.6875 
L 18.109375 46.1875 
Q 21.1875 51.21875 25.484375 53.609375 
Q 29.78125 56 35.6875 56 
Q 41.65625 56 45.828125 52.96875 
Q 50 49.953125 52 44.1875 
z
" id="DejaVuSans-109"/>
     <path d="M 18.109375 8.203125 
L 18.109375 -20.796875 
L 9.078125 -20.796875 
L 9.078125 54.6875 
L 18.109375 54.6875 
L 18.109375 46.390625 
Q 20.953125 51.265625 25.265625 53.625 
Q 29.59375 56 35.59375 56 
Q 45.5625 56 51.78125 48.09375 
Q 58.015625 40.1875 58.015625 27.296875 
Q 58.015625 14.40625 51.78125 6.484375 
Q 45.5625 -1.421875 35.59375 -1.421875 
Q 29.59375 -1.421875 25.265625 0.953125 
Q 20.953125 3.328125 18.109375 8.203125 
z
M 48.6875 27.296875 
Q 48.6875 37.203125 44.609375 42.84375 
Q 40.53125 48.484375 33.40625 48.484375 
Q 26.265625 48.484375 22.1875 42.84375 
Q 18.109375 37.203125 18.109375 27.296875 
Q 18.109375 17.390625 22.1875 11.75 
Q 26.265625 6.109375 33.40625 6.109375 
Q 40.53125 6.109375 44.609375 11.75 
Q 48.6875 17.390625 48.6875 27.296875 
z
" id="DejaVuSans-112"/>
     <path d="M 4.890625 31.390625 
L 31.203125 31.390625 
L 31.203125 23.390625 
L 4.890625 23.390625 
z
" id="DejaVuSans-45"/>
     <path d="M 19.671875 64.796875 
L 19.671875 37.40625 
L 32.078125 37.40625 
Q 38.96875 37.40625 42.71875 40.96875 
Q 46.484375 44.53125 46.484375 51.125 
Q 46.484375 57.671875 42.71875 61.234375 
Q 38.96875 64.796875 32.078125 64.796875 
z
M 9.8125 72.90625 
L 32.078125 72.90625 
Q 44.34375 72.90625 50.609375 67.359375 
Q 56.890625 61.8125 56.890625 51.125 
Q 56.890625 40.328125 50.609375 34.8125 
Q 44.34375 29.296875 32.078125 29.296875 
L 19.671875 29.296875 
L 19.671875 0 
L 9.8125 0 
z
" id="DejaVuSans-80"/>
     <path d="M 45.40625 27.984375 
Q 45.40625 37.75 41.375 43.109375 
Q 37.359375 48.484375 30.078125 48.484375 
Q 22.859375 48.484375 18.828125 43.109375 
Q 14.796875 37.75 14.796875 27.984375 
Q 14.796875 18.265625 18.828125 12.890625 
Q 22.859375 7.515625 30.078125 7.515625 
Q 37.359375 7.515625 41.375 12.890625 
Q 45.40625 18.265625 45.40625 27.984375 
z
M 54.390625 6.78125 
Q 54.390625 -7.171875 48.1875 -13.984375 
Q 42 -20.796875 29.203125 -20.796875 
Q 24.46875 -20.796875 20.265625 -20.09375 
Q 16.0625 -19.390625 12.109375 -17.921875 
L 12.109375 -9.1875 
Q 16.0625 -11.328125 19.921875 -12.34375 
Q 23.78125 -13.375 27.78125 -13.375 
Q 36.625 -13.375 41.015625 -8.765625 
Q 45.40625 -4.15625 45.40625 5.171875 
L 45.40625 9.625 
Q 42.625 4.78125 38.28125 2.390625 
Q 33.9375 0 27.875 0 
Q 17.828125 0 11.671875 7.65625 
Q 5.515625 15.328125 5.515625 27.984375 
Q 5.515625 40.671875 11.671875 48.328125 
Q 17.828125 56 27.875 56 
Q 33.9375 56 38.28125 53.609375 
Q 42.625 51.21875 45.40625 46.390625 
L 45.40625 54.6875 
L 54.390625 54.6875 
z
" id="DejaVuSans-103"/>
    </defs>
    <use xlink:href="#DejaVuSans-83"/>
    <use x="63.476562" xlink:href="#DejaVuSans-97"/>
    <use x="124.755859" xlink:href="#DejaVuSans-109"/>
    <use x="222.167969" xlink:href="#DejaVuSans-112"/>
    <use x="285.644531" xlink:href="#DejaVuSans-108"/>
    <use x="313.427734" xlink:href="#DejaVuSans-101"/>
    <use x="374.951172" xlink:href="#DejaVuSans-32"/>
    <use x="406.738281" xlink:href="#DejaVuSans-56"/>
    <use x="470.361328" xlink:href="#DejaVuSans-32"/>
    <use x="502.148438" xlink:href="#DejaVuSans-45"/>
    <use x="538.232422" xlink:href="#DejaVuSans-32"/>
    <use x="570.019531" xlink:href="#DejaVuSans-80"/>
    <use x="628.072266" xlink:href="#DejaVuSans-105"/>
    <use x="655.855469" xlink:href="#DejaVuSans-101"/>
    <use x="717.378906" xlink:href="#DejaVuSans-32"/>
    <use x="749.166016" xlink:href="#DejaVuSans-68"/>
    <use x="826.167969" xlink:href="#DejaVuSans-105"/>
    <use x="853.951172" xlink:href="#DejaVuSans-97"/>
    <use x="915.230469" xlink:href="#DejaVuSans-103"/>
    <use x="978.707031" xlink:href="#DejaVuSans-114"/>
    <use x="1019.820312" xlink:href="#DejaVuSans-97"/>
    <use x="1081.099609" xlink:href="#DejaVuSans-109"/>
    <use x="1178.511719" xlink:href="#DejaVuSans-109"/>
   </g>
  </g>
 </g>
</svg>
